<?xml version="1.0" encoding="UTF-8"?>
<svg version="1.1" xmlns="http://www.w3.org/2000/svg" width="534" height="534">
<path d="M0 0 C8.36678801 6.72980775 15.19983492 14.89228065 22.22265625 22.97265625 C24.29359487 25.33489173 26.39512848 27.66795853 28.5 30 C31.76390848 33.61676345 34.98790949 37.26389608 38.1875 40.9375 C40.27211164 43.30964429 42.38428644 45.65556065 44.5 48 C47.76145125 51.61404058 50.98359155 55.25789354 54.1796875 58.9296875 C56.3062232 61.34827961 58.46469106 63.73653963 60.625 66.125 C63.83849293 69.6845614 66.96884701 73.28439311 70 77 C75.96952022 72.1735794 80.95732992 66.77598476 86 61 C86.56332031 60.36320312 87.12664062 59.72640625 87.70703125 59.0703125 C90.39547128 56.02210556 93.04916083 52.94589313 95.6796875 49.84765625 C101.74798107 42.7097858 107.95102183 35.73830738 114.33203125 28.87890625 C118.66333518 24.20515662 122.81478685 19.39045726 126.94921875 14.54296875 C127.48160156 13.91962646 128.01398438 13.29628418 128.5625 12.65405273 C129.62287116 11.41158959 130.6815459 10.16767606 131.73828125 8.92211914 C137.22762047 2.48346193 137.22762047 2.48346193 140 0 C140.66 0 141.32 0 142 0 C148.93 33.66 155.86 67.32 163 102 C169.82920764 100.13748882 176.51644036 98.2561694 183.20336914 95.99731445 C184.47380066 95.57237701 184.47380066 95.57237701 185.76989746 95.13885498 C187.58503292 94.53129717 189.39970565 93.92235541 191.21394539 93.31212807 C194.08343333 92.34704441 196.9541955 91.38583947 199.82530212 90.42558289 C205.90550629 88.3912777 211.98411055 86.35221996 218.0625 84.3125 C225.14025254 81.93751403 232.21864771 79.56448133 239.29873466 77.19646263 C242.13032597 76.24827028 244.96069203 75.29648193 247.79103088 74.34455872 C249.5143556 73.76769723 251.2377361 73.19100236 252.96118164 72.61450195 C253.75022385 72.34804367 254.53926605 72.08158539 255.35221863 71.80705261 C260.77231345 70 260.77231345 70 263 70 C261.7348477 76.23921126 260.06777837 82.22204008 258.03491211 88.25170898 C257.74361923 89.12763199 257.45232635 90.00355499 257.15220642 90.90602112 C256.19825873 93.77084725 255.23792225 96.63348483 254.27734375 99.49609375 C253.60963988 101.4961446 252.94229206 103.49631435 252.27528381 105.49659729 C250.88182051 109.67240044 249.48542818 113.84720779 248.08666992 118.02124023 C246.29130998 123.37891795 244.50122821 128.73833984 242.71304989 134.09841824 C241.33752932 138.22083177 239.96031097 142.3426763 238.5824604 146.4643116 C237.92151462 148.44144397 237.26085286 150.41867131 236.60047722 152.39599419 C235.68045585 155.14921015 234.75840579 157.90173767 233.83569336 160.65405273 C233.56190857 161.47428925 233.28812378 162.29452576 233.00604248 163.13961792 C231.11470257 168.77059487 231.11470257 168.77059487 230 171 C231.28850357 171.12734024 232.57700714 171.25468048 233.90455627 171.38587952 C238.84190197 171.9367732 243.66283552 172.8291487 248.52709961 173.82592773 C249.43228333 174.00817902 250.33746704 174.1904303 251.27008057 174.37820435 C254.23170342 174.97579927 257.1920752 175.57932842 260.15234375 176.18359375 C262.21974597 176.60348778 264.28717498 177.02324995 266.35462952 177.44288635 C270.67132857 178.32017464 274.98734983 179.20071409 279.30297852 180.08325195 C284.8420255 181.21545416 290.38318909 182.33690962 295.92496395 183.45567226 C300.18697923 184.31774966 304.44756285 185.18673977 308.70776558 186.05772591 C310.75147496 186.4744255 312.79569028 186.88865152 314.84040642 187.30038261 C317.68802283 187.8745982 320.533513 188.45837755 323.37866211 189.04467773 C324.22695084 189.21358017 325.07523956 189.3824826 325.94923401 189.5565033 C331.77166402 190.77166402 331.77166402 190.77166402 334 193 C320.98706256 205.08060808 320.98706256 205.08060808 314.9453125 210.30078125 C312.6633471 212.29406428 310.42771426 214.33493027 308.1875 216.375 C304.81059018 219.42858867 301.36782868 222.34429205 297.8125 225.1875 C291.7432691 230.09288691 286.11202062 235.42952266 280.43359375 240.77734375 C276.70586343 244.28667976 272.90338812 247.68716138 269 251 C268.47567383 251.44537109 267.95134766 251.89074219 267.41113281 252.34960938 C263.61355102 255.57369584 259.80882516 258.78920684 256 262 C258.73821249 265.36974515 261.35378937 268.51391862 264.6875 271.3125 C267.83466358 273.99736836 270.9322714 276.72443603 274 279.5 C279.32334693 284.29907792 284.68863339 289.0407795 290.15234375 293.6796875 C296.73318179 299.27441739 303.19765898 304.95735112 309.51953125 310.84375 C312.96563251 314.05218911 316.45616904 317.19242742 320.01953125 320.26953125 C323.35913878 323.18757096 326.62389965 326.18901052 329.8984375 329.1796875 C331.86723421 331.03676667 331.86723421 331.03676667 334 332 C334 332.66 334 333.32 334 334 C300.01 340.93 266.02 347.86 231 355 C238.92395165 379.43218424 246.90752531 403.8344821 255.11425781 428.17138672 C256.0079209 430.82209112 256.89921595 433.47356918 257.78790283 436.12594604 C258.60770185 438.57228721 259.43104911 441.0174431 260.25848389 443.46121216 C260.62016663 444.54280609 260.98184937 445.62440002 261.35449219 446.73876953 C261.67359558 447.68640167 261.99269897 448.63403381 262.32147217 449.61038208 C263 452 263 452 263 455 C256.75265976 453.73489061 250.76717657 452.06140515 244.73242188 450.01904297 C243.85489258 449.7261438 242.97736328 449.43324463 242.07324219 449.13146973 C239.20365656 448.17256546 236.33622848 447.20737258 233.46875 446.2421875 C231.46633301 445.57200072 229.46376716 444.90225856 227.46105957 444.23294067 C222.21264035 442.47778369 216.96596258 440.71748093 211.71972656 438.95581055 C203.29517831 436.12782487 194.86803334 433.30758842 186.44081116 430.48758316 C183.49478268 429.5009063 180.54952306 428.5119613 177.60437012 427.52267456 C175.81373665 426.92245812 174.02308808 426.32228674 172.23242188 425.72216797 C171.40859009 425.4447879 170.5847583 425.16740784 169.73596191 424.88162231 C166.43547389 423.57537452 166.43547389 423.57537452 163 423 C156.07 456.99 149.14 490.98 142 526 C140 526 140 526 138.58984375 524.6015625 C138.04457031 523.94929687 137.49929688 523.29703125 136.9375 522.625 C134.17182591 519.37058933 131.36691808 516.16586167 128.5 513 C125.23295665 509.37976277 122.00479224 505.73016435 118.8046875 502.05078125 C116.77041859 499.73911203 114.6977769 497.4646857 112.625 495.1875 C109.57141133 491.81059018 106.65570795 488.36782868 103.8125 484.8125 C98.91228618 478.74966954 93.58238845 473.12376794 88.23828125 467.453125 C84.72364084 463.72051461 81.33762663 459.89105961 78 456 C76.68878978 454.49887242 75.37629134 452.99886909 74.0625 451.5 C73.04166667 450.33333333 72.02083333 449.16666667 71 448 C67.10429963 451.84501282 63.34439223 455.79712337 59.625 459.8125 C59.0484668 460.43415039 58.47193359 461.05580078 57.87792969 461.69628906 C54.41264801 465.44333277 50.99659516 469.22377754 47.6640625 473.08984375 C45.68459874 475.36204511 43.6541683 477.58459872 41.625 479.8125 C38.57141133 483.18940982 35.65570795 486.63217132 32.8125 490.1875 C27.91344668 496.24889462 22.58487255 501.8735229 17.2421875 507.54296875 C13.72652234 511.27672978 10.32645516 515.09695928 7 519 C6.13568359 520.00546875 6.13568359 520.00546875 5.25390625 521.03125 C3.83308151 522.68505062 2.4160876 524.34214134 1 526 C-1.2061615 523.7938385 -1.39758612 523.02497742 -1.99978638 520.06594849 C-2.25633499 518.83361481 -2.25633499 518.83361481 -2.51806641 517.5763855 C-2.69789063 516.67348785 -2.87771484 515.77059021 -3.06298828 514.84033203 C-3.35603348 513.41575684 -3.35603348 513.41575684 -3.65499878 511.96240234 C-4.30092716 508.81235067 -4.93579276 505.66018042 -5.5703125 502.5078125 C-6.01530483 500.32295632 -6.46085859 498.13821442 -6.9069519 495.95358276 C-7.84130847 491.36957967 -8.77050135 486.78457018 -9.69580078 482.19873047 C-10.88280471 476.31676925 -12.07992798 470.43692668 -13.28059578 464.55774117 C-14.20164453 460.04429174 -15.11862439 455.53002369 -16.03423691 451.0154686 C-16.47426103 448.84711253 -16.91524979 446.67895199 -17.35721207 444.51099014 C-17.97401625 441.48092679 -18.58565626 438.44986743 -19.19580078 435.41845703 C-19.37967346 434.51960785 -19.56354614 433.62075867 -19.75299072 432.69467163 C-19.91838348 431.8674762 -20.08377625 431.04028076 -20.25418091 430.1880188 C-20.39907015 429.47161791 -20.54395939 428.75521702 -20.69323921 428.01710701 C-21 426 -21 426 -21 422 C-22.01980957 422.36013184 -23.03961914 422.72026367 -24.09033203 423.09130859 C-45.93924349 430.79747289 -67.83523162 438.35946476 -89.80340576 445.71929932 C-92.22584679 446.53133641 -94.64760161 447.34542342 -97.06866455 448.16156006 C-100.479936 449.31052065 -103.89380718 450.45137948 -107.30859375 451.58984375 C-108.33277908 451.93600235 -109.35696442 452.28216095 -110.41218567 452.6388092 C-111.35567368 452.95128098 -112.29916168 453.26375275 -113.27124023 453.58569336 C-114.09196518 453.86021835 -114.91269012 454.13474335 -115.75828552 454.41758728 C-118 455 -118 455 -122 455 C-119.62138089 445.4282829 -116.45384903 436.12656536 -113.31212807 426.78605461 C-112.34704441 423.91656667 -111.38583947 421.0458045 -110.42558289 418.17469788 C-108.3912777 412.09449371 -106.35221996 406.01588945 -104.3125 399.9375 C-101.93751403 392.85974746 -99.56448133 385.78135229 -97.19646263 378.70126534 C-96.24827028 375.86967403 -95.29648193 373.03930797 -94.34455872 370.20896912 C-93.76769723 368.4856444 -93.19100236 366.7622639 -92.61450195 365.03881836 C-92.34804367 364.24977615 -92.08158539 363.46073395 -91.80705261 362.64778137 C-90.47395808 358.90586862 -90.47395808 358.90586862 -90 355 C-123.66 348.07 -157.32 341.14 -192 334 C-189.87976185 329.7595237 -187.3332877 327.27955304 -183.875 324.1875 C-183.28678467 323.65342529 -182.69856934 323.11935059 -182.0925293 322.5690918 C-178.41665177 319.24084365 -174.70693728 315.95168678 -170.95703125 312.70703125 C-168.6144085 310.66366569 -166.30726578 308.58319141 -164 306.5 C-158.67665307 301.70092208 -153.31136661 296.9592205 -147.84765625 292.3203125 C-141.27359685 286.7313455 -134.80400888 281.06518239 -128.50244141 275.16943359 C-124.87217126 271.77643601 -121.15332879 268.53042931 -117.29296875 265.40234375 C-115.66107265 263.95030911 -115.66107265 263.95030911 -116 261 C-117.78704573 259.1295588 -119.55785853 257.44467599 -121.5 255.75 C-122.05026855 255.25838379 -122.60053711 254.76676758 -123.16748047 254.26025391 C-124.77085561 252.83143409 -126.38355395 251.41399897 -128 250 C-128.73476562 249.35289062 -129.46953125 248.70578125 -130.2265625 248.0390625 C-131.48408307 246.93679138 -132.74447108 245.83778234 -134.0078125 244.7421875 C-136.36020635 242.68499601 -138.68034966 240.59403085 -141 238.5 C-143.98062721 235.81016569 -146.97245233 233.13689636 -150 230.5 C-153.89512811 227.10746907 -157.72782763 223.64805799 -161.5625 220.1875 C-163.69417481 218.27445851 -165.8401911 216.38112388 -168 214.5 C-171.88536856 211.11596932 -175.70975295 207.66679749 -179.53125 204.2109375 C-182.45039249 201.59664217 -185.41812645 199.04281896 -188.40625 196.5078125 C-190 195 -190 195 -192 192 C-187.01414056 190.19937493 -182.02605829 189.07803097 -176.84521484 188.02880859 C-175.94368179 187.8431987 -175.04214874 187.65758881 -174.11329651 187.46635437 C-171.14659658 186.85664095 -168.17882307 186.25235104 -165.2109375 185.6484375 C-163.14396918 185.22552269 -161.07704475 184.80239334 -159.01016235 184.37905884 C-154.68500154 183.49409013 -150.35930006 182.61182605 -146.03320312 181.73144531 C-140.48596089 180.60231373 -134.94015411 179.46630164 -129.39473534 178.32825279 C-125.13000503 177.45384582 -120.86452289 176.58315363 -116.59880447 175.71358109 C-114.55321098 175.29610127 -112.50785752 174.8774435 -110.46274948 174.45759201 C-107.60792151 173.87207264 -104.75211716 173.29157629 -101.89599609 172.71240234 C-101.05018478 172.5378804 -100.20437347 172.36335846 -99.33293152 172.18354797 C-98.55358749 172.02656937 -97.77424347 171.86959076 -96.97128296 171.70785522 C-95.95978211 171.50158288 -95.95978211 171.50158288 -94.92784691 171.29114342 C-93 171 -93 171 -89 171 C-89.41342651 169.76416168 -89.82685303 168.52832336 -90.25280762 167.2550354 C-94.14099577 155.63094425 -98.02604685 144.00580883 -101.90799713 132.37963295 C-103.90403632 126.40197036 -105.90119446 120.42468643 -107.90087891 114.44824219 C-109.82919664 108.6849562 -111.75461544 102.92070937 -113.67799377 97.15577316 C-114.41378243 94.95211397 -115.15063034 92.74880817 -115.88853455 90.54585648 C-116.91869701 87.46980243 -117.94514899 84.39253438 -118.97070312 81.31494141 C-119.2792775 80.39640884 -119.58785187 79.47787628 -119.90577698 78.5315094 C-120.18344406 77.69575882 -120.46111115 76.86000824 -120.74719238 75.99893188 C-120.99054573 75.27071543 -121.23389908 74.54249897 -121.48462677 73.79221535 C-122 72 -122 72 -122 70 C-113.44480713 71.64786543 -105.31370091 74.42877754 -97.07421875 77.19921875 C-95.52085441 77.71802939 -93.96736992 78.23648039 -92.41377258 78.7545929 C-89.16091046 79.84040939 -85.90904696 80.92914683 -82.65795898 82.02026367 C-78.55242392 83.39811353 -74.44521459 84.77088173 -70.3373394 86.14173698 C-53.85048422 91.64432259 -37.37478157 97.17028232 -21 103 C-20.87298706 101.71182373 -20.74597412 100.42364746 -20.6151123 99.09643555 C-20.0633858 94.15183565 -19.16341314 89.32691682 -18.15820312 84.45703125 C-17.97434555 83.55024124 -17.79048798 82.64345123 -17.60105896 81.70918274 C-16.99846533 78.74278899 -16.39006614 75.77762239 -15.78125 72.8125 C-15.35884883 70.74272502 -14.93669274 68.67290001 -14.51477051 66.60302734 C-13.63305523 62.28217781 -12.74847012 57.96192862 -11.86181641 53.64208984 C-10.72318247 48.09345993 -9.59164538 42.54341055 -8.46219635 36.99290466 C-7.59339768 32.72714747 -6.7209633 28.46214031 -5.84739685 24.19735718 C-5.42842949 22.14975702 -5.01059215 20.10192533 -4.59388733 18.05386353 C-4.01354818 15.20440806 -3.42835206 12.35599392 -2.84179688 9.5078125 C-2.66929916 8.6559285 -2.49680145 7.80404449 -2.31907654 6.92634583 C-1.11428006 1.11428006 -1.11428006 1.11428006 0 0 Z " fill="#FEB909" transform="translate(196,4)"/>
<path d="M0 0 C0.66 -0.7425 1.32 -1.485 2 -2.25 C7.48523202 -7.75085946 14.5543943 -10.10322293 22.1875 -10.3125 C30.75229601 -10.19860644 37.10146539 -6.79659262 43.26953125 -0.9609375 C48.91381969 5.43507333 49.63867379 12.13441085 49.39453125 20.48046875 C48.7421157 26.30053223 47.28174624 32.16473042 43.55078125 36.80078125 C42 38 42 38 39 38 C39.85271484 39.4540625 39.85271484 39.4540625 40.72265625 40.9375 C60.94237297 75.84686731 68.6412105 113.91937927 58.31640625 153.546875 C48.42454433 188.54041345 25.50457706 218.90099636 -6.04736328 237.18652344 C-37.28295869 254.48507567 -75.79847193 261.0042019 -110.625 251.68896484 C-135.25841997 244.5430447 -155.59152733 232.73466327 -174 215 C-174.70511719 214.35804688 -175.41023438 213.71609375 -176.13671875 213.0546875 C-202.00165185 188.81614978 -213.07818844 153.40321864 -215.18359375 119 C-215.87389629 92.36244323 -208.06778724 60.0231792 -191 39 C-191.39832031 38.52691406 -191.79664063 38.05382812 -192.20703125 37.56640625 C-199.56737157 28.37941213 -201.18295155 19.73433553 -200 8 C-198.30904291 0.77886877 -194.10125617 -3.9534624 -188 -8 C-180.40302064 -12.07583972 -173.97136074 -13.2258749 -165.5625 -11 C-160.01483345 -9.01869052 -156.11255196 -5.09310727 -152 -1 C-148.73604821 -2.27011393 -145.58141494 -3.64897823 -142.4453125 -5.20703125 C-95.72446483 -28.14456225 -44.64728672 -27.81999495 0 0 Z " fill="#FDC316" transform="translate(345,156)"/>
<path d="M0 0 C8.36678801 6.72980775 15.19983492 14.89228065 22.22265625 22.97265625 C24.29359487 25.33489173 26.39512848 27.66795853 28.5 30 C31.76390848 33.61676345 34.98790949 37.26389608 38.1875 40.9375 C40.27211164 43.30964429 42.38428644 45.65556065 44.5 48 C47.76145125 51.61404058 50.98359155 55.25789354 54.1796875 58.9296875 C56.3062232 61.34827961 58.46469106 63.73653963 60.625 66.125 C63.83849293 69.6845614 66.96884701 73.28439311 70 77 C75.96952022 72.1735794 80.95732992 66.77598476 86 61 C86.56332031 60.36320312 87.12664062 59.72640625 87.70703125 59.0703125 C90.39547128 56.02210556 93.04916083 52.94589313 95.6796875 49.84765625 C101.74798107 42.7097858 107.95102183 35.73830738 114.33203125 28.87890625 C118.66333518 24.20515662 122.81478685 19.39045726 126.94921875 14.54296875 C127.48160156 13.91962646 128.01398438 13.29628418 128.5625 12.65405273 C129.62287116 11.41158959 130.6815459 10.16767606 131.73828125 8.92211914 C137.22762047 2.48346193 137.22762047 2.48346193 140 0 C140.66 0 141.32 0 142 0 C144.35152998 11.40374423 146.69883386 22.80834931 149.04072571 34.214077 C150.12825729 39.51001152 151.21724994 44.80563688 152.30957031 50.10058594 C153.36339088 55.20918031 154.41338823 60.31854676 155.46072388 65.42847443 C155.86125227 67.37921466 156.26316443 69.3296713 156.66647339 71.27983856 C157.23051841 74.00841546 157.78966369 76.73795336 158.34765625 79.46777344 C158.51596954 80.27625732 158.68428284 81.08474121 158.85769653 81.91772461 C159.55973875 85.37541909 160 88.4552947 160 92 C155.78417592 90.69048887 151.81056293 89.07100976 147.78442383 87.28393555 C129.30678901 79.14362727 109.21053038 73.44632797 89 72 C88.18144531 71.88914062 87.36289062 71.77828125 86.51953125 71.6640625 C83.7890846 71.42447717 81.68454296 71.42390555 79 72 C77.18441331 73.74932239 77.18441331 73.74932239 75.5625 75.93359375 C70.21330125 81.56495353 64.48746736 81.31361821 57.0625 81.625 C54.37144445 81.80311071 51.68387306 82.01652094 48.99609375 82.23828125 C48.32223633 82.29217514 47.64837891 82.34606903 46.95410156 82.40159607 C30.89807069 83.78972937 14.74261982 88.53625806 0 95 C-1.14807129 95.50104248 -1.14807129 95.50104248 -2.31933594 96.01220703 C-18.80939004 103.18248699 -18.80939004 103.18248699 -33 114 C-31.88625 114.20753906 -30.7725 114.41507812 -29.625 114.62890625 C-17.48780533 117.0274184 -6.92413039 120.99285442 4.08984375 126.5625 C11.43878921 130.19059089 17.11144374 131.63573829 25.0703125 128.97265625 C26.18148437 128.54855469 27.29265625 128.12445313 28.4375 127.6875 C54.79439407 117.7222726 91.33145545 118.45079979 117.25 129.75 C127.52697418 133.17565806 135.59748304 130.50513924 145 126 C160.77110748 118.75520949 173.63469677 113.91097429 190.86328125 119.7421875 C204.98284831 125.40408114 214.69726271 135.14350828 221.3203125 148.703125 C227.21650068 163.46421149 224.71645228 180.55979246 219 195 C217.93916899 196.90851584 216.85867093 198.80637164 215.75 200.6875 C214.04937814 204.20566147 213.8267713 205.44106676 215 209.2265625 C216.22744352 211.74172578 217.49053741 214.19202209 218.81640625 216.65234375 C236.04955081 249.26322564 240.9086393 297.56871985 230.79150391 332.50048828 C221.81956701 360.8332119 200.9300576 383.4554808 174.87109375 397.23046875 C170.95130204 399.23598623 166.99142185 401.14190844 163 403 C162.17757813 403.39550049 161.35515625 403.79100098 160.5078125 404.19848633 C153.66094403 407.42645431 146.75300367 409.90863619 139.5 412.0625 C138.3437915 412.40611572 137.18758301 412.74973145 135.99633789 413.10375977 C123.51550962 416.65418773 110.87192747 418.52973643 98 420 C97.16879639 420.1016748 96.33759277 420.20334961 95.48120117 420.30810547 C46.19023388 425.90855765 -11.66861827 414.70506406 -51.20556641 383.45263672 C-72.62325408 366.1145086 -86.73202121 342.42020414 -89.77734375 314.79248047 C-92.47025336 281.01890575 -87.24035302 243.79941283 -70.69921875 213.796875 C-68.48466091 209.41327506 -69.1216574 206.71627798 -70.61230469 202.10644531 C-71.33932106 199.93565032 -72.10634687 197.7813761 -72.875 195.625 C-76.77492156 184.31813353 -78.93543062 172.9231771 -80 161 C-107.1272776 200.31210678 -116.58439843 249.43847247 -108.50048828 296.34521484 C-107.11392528 303.70008609 -105.24482283 310.86277048 -103 318 C-102.7632959 318.75667969 -102.5265918 319.51335937 -102.28271484 320.29296875 C-96.05918491 339.64958461 -86.56491087 358.01020539 -74 374 C-73.33226563 374.88816406 -72.66453125 375.77632813 -71.9765625 376.69140625 C-57.81904684 394.89005186 -40.4665608 408.91730709 -21 421 C-23.89865665 423.89865665 -27.48788049 424.68576725 -31.30175781 425.94921875 C-32.16047989 426.23890533 -33.01920197 426.52859192 -33.90394592 426.82705688 C-36.75180435 427.7861982 -39.60241922 428.73685823 -42.453125 429.6875 C-44.43146834 430.35194107 -46.40963587 431.01690583 -48.38763428 431.68237305 C-53.60487375 433.43605181 -58.8244881 435.18255548 -64.0446167 436.9276123 C-69.34239218 438.70002724 -74.63789342 440.47920905 -79.93359375 442.2578125 C-103.31273532 450.10712853 -103.31273532 450.10712853 -110.04602814 452.34194946 C-111.80520468 452.93439764 -113.55398589 453.55750074 -115.3012085 454.18432617 C-118 455 -118 455 -122 455 C-119.62138089 445.4282829 -116.45384903 436.12656536 -113.31212807 426.78605461 C-112.34704441 423.91656667 -111.38583947 421.0458045 -110.42558289 418.17469788 C-108.3912777 412.09449371 -106.35221996 406.01588945 -104.3125 399.9375 C-101.93751403 392.85974746 -99.56448133 385.78135229 -97.19646263 378.70126534 C-96.24827028 375.86967403 -95.29648193 373.03930797 -94.34455872 370.20896912 C-93.76769723 368.4856444 -93.19100236 366.7622639 -92.61450195 365.03881836 C-92.34804367 364.24977615 -92.08158539 363.46073395 -91.80705261 362.64778137 C-90.47395808 358.90586862 -90.47395808 358.90586862 -90 355 C-123.66 348.07 -157.32 341.14 -192 334 C-189.87976185 329.7595237 -187.3332877 327.27955304 -183.875 324.1875 C-183.28678467 323.65342529 -182.69856934 323.11935059 -182.0925293 322.5690918 C-178.41665177 319.24084365 -174.70693728 315.95168678 -170.95703125 312.70703125 C-168.6144085 310.66366569 -166.30726578 308.58319141 -164 306.5 C-158.67665307 301.70092208 -153.31136661 296.9592205 -147.84765625 292.3203125 C-141.27359685 286.7313455 -134.80400888 281.06518239 -128.50244141 275.16943359 C-124.87217126 271.77643601 -121.15332879 268.53042931 -117.29296875 265.40234375 C-115.66107265 263.95030911 -115.66107265 263.95030911 -116 261 C-117.78704573 259.1295588 -119.55785853 257.44467599 -121.5 255.75 C-122.05026855 255.25838379 -122.60053711 254.76676758 -123.16748047 254.26025391 C-124.77085561 252.83143409 -126.38355395 251.41399897 -128 250 C-128.73476562 249.35289062 -129.46953125 248.70578125 -130.2265625 248.0390625 C-131.48408307 246.93679138 -132.74447108 245.83778234 -134.0078125 244.7421875 C-136.36020635 242.68499601 -138.68034966 240.59403085 -141 238.5 C-143.98062721 235.81016569 -146.97245233 233.13689636 -150 230.5 C-153.89512811 227.10746907 -157.72782763 223.64805799 -161.5625 220.1875 C-163.69417481 218.27445851 -165.8401911 216.38112388 -168 214.5 C-171.88536856 211.11596932 -175.70975295 207.66679749 -179.53125 204.2109375 C-182.45039249 201.59664217 -185.41812645 199.04281896 -188.40625 196.5078125 C-190 195 -190 195 -192 192 C-187.01414056 190.19937493 -182.02605829 189.07803097 -176.84521484 188.02880859 C-175.94368179 187.8431987 -175.04214874 187.65758881 -174.11329651 187.46635437 C-171.14659658 186.85664095 -168.17882307 186.25235104 -165.2109375 185.6484375 C-163.14396918 185.22552269 -161.07704475 184.80239334 -159.01016235 184.37905884 C-154.68500154 183.49409013 -150.35930006 182.61182605 -146.03320312 181.73144531 C-140.48596089 180.60231373 -134.94015411 179.46630164 -129.39473534 178.32825279 C-125.13000503 177.45384582 -120.86452289 176.58315363 -116.59880447 175.71358109 C-114.55321098 175.29610127 -112.50785752 174.8774435 -110.46274948 174.45759201 C-107.60792151 173.87207264 -104.75211716 173.29157629 -101.89599609 172.71240234 C-101.05018478 172.5378804 -100.20437347 172.36335846 -99.33293152 172.18354797 C-98.55358749 172.02656937 -97.77424347 171.86959076 -96.97128296 171.70785522 C-95.95978211 171.50158288 -95.95978211 171.50158288 -94.92784691 171.29114342 C-93 171 -93 171 -89 171 C-89.41342651 169.76416168 -89.82685303 168.52832336 -90.25280762 167.2550354 C-94.14099577 155.63094425 -98.02604685 144.00580883 -101.90799713 132.37963295 C-103.90403632 126.40197036 -105.90119446 120.42468643 -107.90087891 114.44824219 C-109.82919664 108.6849562 -111.75461544 102.92070937 -113.67799377 97.15577316 C-114.41378243 94.95211397 -115.15063034 92.74880817 -115.88853455 90.54585648 C-116.91869701 87.46980243 -117.94514899 84.39253438 -118.97070312 81.31494141 C-119.2792775 80.39640884 -119.58785187 79.47787628 -119.90577698 78.5315094 C-120.18344406 77.69575882 -120.46111115 76.86000824 -120.74719238 75.99893188 C-120.99054573 75.27071543 -121.23389908 74.54249897 -121.48462677 73.79221535 C-122 72 -122 72 -122 70 C-113.44480713 71.64786543 -105.31370091 74.42877754 -97.07421875 77.19921875 C-95.52085441 77.71802939 -93.96736992 78.23648039 -92.41377258 78.7545929 C-89.16091046 79.84040939 -85.90904696 80.92914683 -82.65795898 82.02026367 C-78.55242392 83.39811353 -74.44521459 84.77088173 -70.3373394 86.14173698 C-53.85048422 91.64432259 -37.37478157 97.17028232 -21 103 C-20.87298706 101.71182373 -20.74597412 100.42364746 -20.6151123 99.09643555 C-20.0633858 94.15183565 -19.16341314 89.32691682 -18.15820312 84.45703125 C-17.97434555 83.55024124 -17.79048798 82.64345123 -17.60105896 81.70918274 C-16.99846533 78.74278899 -16.39006614 75.77762239 -15.78125 72.8125 C-15.35884883 70.74272502 -14.93669274 68.67290001 -14.51477051 66.60302734 C-13.63305523 62.28217781 -12.74847012 57.96192862 -11.86181641 53.64208984 C-10.72318247 48.09345993 -9.59164538 42.54341055 -8.46219635 36.99290466 C-7.59339768 32.72714747 -6.7209633 28.46214031 -5.84739685 24.19735718 C-5.42842949 22.14975702 -5.01059215 20.10192533 -4.59388733 18.05386353 C-4.01354818 15.20440806 -3.42835206 12.35599392 -2.84179688 9.5078125 C-2.66929916 8.6559285 -2.49680145 7.80404449 -2.31907654 6.92634583 C-1.11428006 1.11428006 -1.11428006 1.11428006 0 0 Z M8.2578125 146.07421875 C7.66532715 146.40695801 7.0728418 146.73969727 6.46240234 147.08251953 C4.85304302 148.00353013 3.2617159 148.9558482 1.671875 149.91015625 C-1 151 -1 151 -3.16015625 150.3671875 C-4.96645568 149.02492677 -6.57306443 147.62910044 -8.1875 146.0625 C-13.44744514 141.4656676 -19.86873517 139.32065039 -26.90234375 139.65625 C-34.93341712 140.97232906 -41.69746667 144.866655 -47 151 C-51.8839587 157.92583974 -51.92160391 165.80796522 -51 174 C-49.33486337 180.55369282 -46.13334565 185.71850278 -42 191 C-42.49628906 191.76441406 -42.99257812 192.52882812 -43.50390625 193.31640625 C-57.01265133 214.61767221 -64.85540106 237.67574847 -66 263 C-66.04125 263.83015625 -66.0825 264.6603125 -66.125 265.515625 C-67.01312264 301.70662248 -53.45407293 336.52909631 -29 363 C-28.53368164 363.51014648 -28.06736328 364.02029297 -27.58691406 364.54589844 C-5.17849181 388.79990111 27.47300493 405.1821586 60.62451172 407.22314453 C64.56347219 407.33978341 68.49723899 407.38658057 72.4375 407.375 C73.48673141 407.37418427 73.48673141 407.37418427 74.55715942 407.37335205 C103.99844504 407.26859818 131.14706661 398.33198757 155 381 C155.80308594 380.42121094 156.60617187 379.84242188 157.43359375 379.24609375 C170.25699753 369.49693784 181.44812858 357.64253381 190 344 C190.38881348 343.38044434 190.77762695 342.76088867 191.17822266 342.12255859 C210.82053171 310.24326096 216.42437826 272.88366633 208.43017578 236.39941406 C204.41012635 219.91625197 197.2761595 204.18619882 188 190 C188.94166016 189.79890625 188.94166016 189.79890625 189.90234375 189.59375 C192.88958776 188.74819862 193.44894162 187.69749283 195 185 C198.82627259 177.03152405 199.33639595 167.96923524 197.4140625 159.3828125 C194.7903511 152.42636666 189.33645161 147.55387862 183.0234375 143.8359375 C175.62221049 140.576961 167.64901506 141.19637254 160.125 143.6875 C155.65532203 145.46391048 153.15680269 147.44859697 150 151 C146.03885241 151 144.30650901 149.51407047 140.9375 147.4375 C101.37086252 124.01773415 48.26497592 123.545198 8.2578125 146.07421875 Z " fill="#FEBE0F" transform="translate(196,4)"/>
<path d="M0 0 C1.04800781 0.36222656 2.09601563 0.72445312 3.17578125 1.09765625 C15.33255196 5.74907954 25.8117514 12.84168055 35 22 C35.83273437 22.80953125 36.66546875 23.6190625 37.5234375 24.453125 C48.42184201 35.65333148 54.93550231 49.03991606 59 64 C59.24492187 64.86109375 59.48984375 65.7221875 59.7421875 66.609375 C65.37405751 90.83413095 58.89770919 116.28704524 46 137 C43.2568315 140.87182596 40.32976982 144.61597731 37 148 C36.34 148 35.68 148 35 148 C34.98582031 148.71542969 34.97164062 149.43085938 34.95703125 150.16796875 C34.34805008 162.89073755 30.26543778 174.03446566 21 183 C6.7791825 194.22128239 -9.45383764 196.36622669 -27.0144043 196.31567383 C-29.29850313 196.31251933 -31.58129505 196.3360356 -33.86523438 196.36132812 C-51.51333054 196.43703572 -67.7866866 193.31541307 -81.09765625 181.0703125 C-88.31186421 173.70777503 -91.66790889 165.04929566 -92.75 154.875 C-93.61010944 148.67572064 -96.46346902 145.48420508 -100.5546875 140.90625 C-115.90495312 122.66248383 -120.88434841 98.2649575 -119 75 C-115.72271743 48.81280377 -101.58845921 27.71884935 -81.10009766 11.49560547 C-77.57708711 8.96105838 -73.89336165 6.90353405 -70 5 C-69.04222656 4.52691406 -68.08445313 4.05382812 -67.09765625 3.56640625 C-64.10273414 2.21165625 -61.10652299 1.07371828 -58 0 C-56.31970703 -0.58974609 -56.31970703 -0.58974609 -54.60546875 -1.19140625 C-37.14727958 -6.43800341 -17.18941816 -6.03310994 0 0 Z " fill="#FEB504" transform="translate(298,187)"/>
<path d="M0 0 C9.66295252 4.96078493 9.66295252 4.96078493 20.27099609 4.71362305 C23.65915994 3.5581723 26.99684335 2.29210239 30.34521484 1.02612305 C55.46557078 -7.83314614 91.12844288 -6.17032061 115.52099609 4.46362305 C125.79797028 7.88928111 133.86847913 5.21876228 143.27099609 0.71362305 C159.04210358 -6.53116746 171.90569286 -11.37540266 189.13427734 -5.54418945 C203.25384441 0.11770419 212.96825881 9.85713132 219.59130859 23.41674805 C225.48749677 38.17783454 222.98744838 55.27341551 217.27099609 69.71362305 C216.21016508 71.62213888 215.12966702 73.51999468 214.02099609 75.40112305 C212.32037423 78.91928452 212.09776739 80.15468981 213.27099609 83.94018555 C214.49843961 86.45534882 215.76153351 88.90564514 217.08740234 91.3659668 C234.32054691 123.97684869 239.17963539 172.28234289 229.0625 207.21411133 C220.0905631 235.54683495 199.20105369 258.16910384 173.14208984 271.9440918 C169.22229813 273.94960928 165.26241794 275.85553149 161.27099609 277.71362305 C160.03736328 278.30687378 160.03736328 278.30687378 158.77880859 278.91210938 C151.93194012 282.14007735 145.02399977 284.62225924 137.77099609 286.77612305 C136.03668335 287.29154663 136.03668335 287.29154663 134.26733398 287.81738281 C121.78650571 291.36781078 109.14292356 293.24335948 96.27099609 294.71362305 C95.02419067 294.86613525 95.02419067 294.86613525 93.75219727 295.02172852 C44.46122997 300.6221807 -13.39762217 289.41868711 -52.93457031 258.16625977 C-74.35225798 240.82813165 -88.46102512 217.13382719 -91.50634766 189.50610352 C-94.19925727 155.7325288 -88.96935692 118.51303588 -72.42822266 88.51049805 C-69.84972904 83.40210211 -71.3638161 79.75987256 -73.06884766 74.5769043 C-73.60021644 73.05956231 -74.13281623 71.54265098 -74.66650391 70.02612305 C-80.22804092 53.55554392 -83.84536796 33.74535199 -76.20556641 17.3347168 C-69.32287398 5.11702734 -58.75789127 -3.8566867 -45.41650391 -8.41918945 C-28.87469328 -12.30931865 -14.71113315 -7.27849449 0 0 Z M6.52880859 20.7878418 C5.93632324 21.12058105 5.34383789 21.45332031 4.73339844 21.79614258 C3.12403911 22.71715318 1.532712 23.66947124 -0.05712891 24.6237793 C-2.72900391 25.71362305 -2.72900391 25.71362305 -4.88916016 25.08081055 C-6.69545959 23.73854982 -8.30206834 22.34272349 -9.91650391 20.77612305 C-15.17644905 16.17929065 -21.59773907 14.03427343 -28.63134766 14.36987305 C-36.66242103 15.68595211 -43.42647058 19.58027805 -48.72900391 25.71362305 C-53.61296261 32.63946278 -53.65060782 40.52158827 -52.72900391 48.71362305 C-51.06386728 55.26731587 -47.86234955 60.43212583 -43.72900391 65.71362305 C-44.22529297 66.47803711 -44.72158203 67.24245117 -45.23291016 68.0300293 C-58.74165523 89.33129526 -66.58440497 112.38937151 -67.72900391 137.71362305 C-67.77025391 138.5437793 -67.81150391 139.37393555 -67.85400391 140.22924805 C-68.74212654 176.42024553 -55.18307684 211.24271936 -30.72900391 237.71362305 C-30.26268555 238.22376953 -29.79636719 238.73391602 -29.31591797 239.25952148 C-6.90749571 263.51352416 25.74400102 279.89578164 58.89550781 281.93676758 C62.83446828 282.05340645 66.76823509 282.10020362 70.70849609 282.08862305 C71.75772751 282.08780731 71.75772751 282.08780731 72.82815552 282.0869751 C102.26944113 281.98222122 129.4180627 273.04561062 153.27099609 255.71362305 C154.07408203 255.13483398 154.87716797 254.55604492 155.70458984 253.9597168 C168.52799362 244.21056089 179.71912467 232.35615686 188.27099609 218.71362305 C188.65980957 218.09406738 189.04862305 217.47451172 189.44921875 216.83618164 C209.0915278 184.95688401 214.69537435 147.59728937 206.70117188 111.11303711 C202.68112245 94.62987502 195.5471556 78.89982187 186.27099609 64.71362305 C187.21265625 64.5125293 187.21265625 64.5125293 188.17333984 64.30737305 C191.16058385 63.46182167 191.71993772 62.41111588 193.27099609 59.71362305 C197.09726868 51.7451471 197.60739204 42.68285828 195.68505859 34.09643555 C193.06134719 27.13998971 187.6074477 22.26750166 181.29443359 18.54956055 C173.89320658 15.29058404 165.92001115 15.90999558 158.39599609 18.40112305 C153.92631812 20.17753352 151.42779878 22.16222002 148.27099609 25.71362305 C144.30984851 25.71362305 142.57750511 24.22769352 139.20849609 22.15112305 C99.64185861 -1.2686428 46.53597201 -1.74117895 6.52880859 20.7878418 Z " fill="#FDD530" transform="translate(197.72900390625,129.286376953125)"/>
<path d="M0 0 C0.66 -0.7425 1.32 -1.485 2 -2.25 C7.48523202 -7.75085946 14.5543943 -10.10322293 22.1875 -10.3125 C30.75229601 -10.19860644 37.10146539 -6.79659262 43.26953125 -0.9609375 C48.91381969 5.43507333 49.63867379 12.13441085 49.39453125 20.48046875 C48.7421157 26.30053223 47.28174624 32.16473042 43.55078125 36.80078125 C42 38 42 38 39 38 C39.85271484 39.4540625 39.85271484 39.4540625 40.72265625 40.9375 C60.94237297 75.84686731 68.6412105 113.91937927 58.31640625 153.546875 C48.42454433 188.54041345 25.50457706 218.90099636 -6.04736328 237.18652344 C-37.28295869 254.48507567 -75.79847193 261.0042019 -110.625 251.68896484 C-135.25841997 244.5430447 -155.59152733 232.73466327 -174 215 C-174.70511719 214.35804688 -175.41023438 213.71609375 -176.13671875 213.0546875 C-202.00165185 188.81614978 -213.07818844 153.40321864 -215.18359375 119 C-215.87389629 92.36244323 -208.06778724 60.0231792 -191 39 C-191.39832031 38.52691406 -191.79664063 38.05382812 -192.20703125 37.56640625 C-199.56737157 28.37941213 -201.18295155 19.73433553 -200 8 C-198.30904291 0.77886877 -194.10125617 -3.9534624 -188 -8 C-180.40302064 -12.07583972 -173.97136074 -13.2258749 -165.5625 -11 C-160.01483345 -9.01869052 -156.11255196 -5.09310727 -152 -1 C-148.73604821 -2.27011393 -145.58141494 -3.64897823 -142.4453125 -5.20703125 C-95.72446483 -28.14456225 -44.64728672 -27.81999495 0 0 Z M-169.73046875 33.98046875 C-191.69062788 59.66156256 -202.7549478 91.88628008 -200.78515625 125.67578125 C-198.62217808 152.36704819 -188.11097408 179.12601075 -170 199 C-169.48083008 199.57363281 -168.96166016 200.14726562 -168.42675781 200.73828125 C-147.59312582 223.47458268 -118.6945102 239.22363 -87.55151367 241.22119141 C-52.70301772 242.33729315 -22.00316277 234.74899293 5 212 C5.89332031 211.25878906 6.78664063 210.51757812 7.70703125 209.75390625 C31.27321645 189.44571901 45.44542856 159.01923691 48.6875 128.375 C48.81052939 126.5845297 48.91451212 124.792655 49 123 C49.05285156 122.06671875 49.10570312 121.1334375 49.16015625 120.171875 C50.17887637 85.62397542 36.50656145 54.84006672 13.734375 29.4765625 C-8.87190188 5.7474573 -40.91585389 -7.41329664 -73.47802734 -8.34960938 C-110.38310925 -8.72116102 -145.03636818 6.49182361 -169.73046875 33.98046875 Z " fill="#FECA20" transform="translate(345,156)"/>
<path d="M0 0 C1.50771973 0.00858032 1.50771973 0.00858032 3.04589844 0.01733398 C11.19638302 0.21274034 17.41719901 1.50580367 24.625 5.5 C26.04619141 6.26183594 26.04619141 6.26183594 27.49609375 7.0390625 C44.92008619 17.23729386 56.08845456 34.94858475 61.65625 54.03515625 C65.48430029 70.03853316 64.27340296 85.27597909 55.625 99.5 C48.35348306 110.55270575 35.36722627 115.92454085 22.86328125 118.5859375 C15.80544141 119.81687322 8.75082844 119.83622893 1.6105957 119.81567383 C-0.67350313 119.81251933 -2.95629505 119.8360356 -5.24023438 119.86132812 C-22.88833054 119.93703572 -39.1616866 116.81541307 -52.47265625 104.5703125 C-61.72808637 95.12458382 -64.65367864 83.0377619 -64.6940918 70.14746094 C-64.33879912 49.69177162 -55.48180985 31.00277028 -41.6875 16.1875 C-30.00979973 5.05379198 -16.05734921 -0.10717562 0 0 Z " fill="#DD7320" transform="translate(269.375,263.5)"/>
<path d="M0 0 C2.77950766 2.20760896 5.41308172 4.50539711 8.02734375 6.90625 C8.51299805 7.34420898 8.99865234 7.78216797 9.49902344 8.23339844 C25.67578194 22.95559934 36.02064909 41.64666717 41.02734375 62.90625 C41.25292969 63.82019531 41.47851562 64.73414063 41.7109375 65.67578125 C47.25059141 92.38073354 41.12589322 121.11627785 26.27734375 143.78125 C18.23020491 155.47328771 8.71219565 164.88845269 -2.97265625 172.90625 C-3.97265625 170.90625 -3.97265625 170.90625 -3.265625 168.7265625 C-2.90082031 167.83710938 -2.53601563 166.94765625 -2.16015625 166.03125 C-0.5351492 161.8305515 0.40110855 157.99691704 0.96484375 153.53125 C1.75080065 148.28481973 2.91091295 146.39626741 7.02734375 142.90625 C23.45299999 123.40941013 28.24149017 99.83672322 27.02734375 74.90625 C25.08903961 53.3695373 13.99104941 34.91429257 -0.97265625 19.90625 C-1.92205078 18.92205078 -1.92205078 18.92205078 -2.890625 17.91796875 C-20.53997252 0.96991981 -45.01438081 -3.76045903 -68.51953125 -3.41015625 C-89.47031091 -2.68193689 -108.03472459 6.58127298 -122.97265625 20.90625 C-123.88273437 21.72996094 -124.7928125 22.55367187 -125.73046875 23.40234375 C-136.9161528 33.88697518 -143.70756015 46.18748699 -147.97265625 60.90625 C-148.29105469 61.97875 -148.60945313 63.05125 -148.9375 64.15625 C-154.89235052 87.42681794 -150.27616445 111.66022777 -138.58203125 132.3359375 C-135.47105085 137.30444504 -131.85594902 141.88345406 -127.86328125 146.171875 C-125.51568422 149.56715996 -124.9304268 152.78404174 -124.34765625 156.78125 C-124.12964825 158.15418135 -123.90831559 159.52658908 -123.68359375 160.8984375 C-123.52068848 161.89375488 -123.52068848 161.89375488 -123.35449219 162.90917969 C-122.76778907 165.97774202 -121.88501803 168.91962982 -120.97265625 171.90625 C-139.14772754 163.77195236 -152.48520339 142.68895054 -159.97265625 124.90625 C-170.07674529 98.06726349 -169.88894265 68.35470711 -158.125 42.0078125 C-145.44484308 15.11050995 -123.38234182 -4.26530363 -95.52734375 -14.33984375 C-63.28866376 -24.74310573 -27.7536949 -19.54793754 0 0 Z " fill="#FEBB0B" transform="translate(330.97265625,187.09375)"/>
<path d="M0 0 C0.66 0.33 1.32 0.66 2 1 C2.49902344 2.69555664 2.49902344 2.69555664 2.859375 4.91015625 C3.00286377 5.72790527 3.14635254 6.5456543 3.29418945 7.38818359 C3.44460693 8.27070801 3.59502441 9.15323242 3.75 10.0625 C5.13225825 17.69333233 7.03467588 24.69196263 10.15722656 31.79711914 C11.93616382 36.00994547 12.26736986 38.6041676 11 43 C9.98965689 45.46044989 8.94076044 47.84635395 7.8125 50.25 C-8.26853775 85.9326534 -17.06492558 131.59734777 -3.25 169.3125 C1.00357394 180.17799904 6.42128994 190.10038187 14 199 C14.87205078 200.08861328 14.87205078 200.08861328 15.76171875 201.19921875 C42.08362576 232.81861647 89.79692336 246.16776023 129 250.375 C166.06193639 253.63192305 204.59208042 249.67817068 239 235 C239.68755371 234.70899414 240.37510742 234.41798828 241.08349609 234.11816406 C255.38773951 227.96964915 267.94117451 220.06316865 279.61425781 209.75463867 C282.9253604 206.83208384 286.28901517 204.37106014 290 202 C287.53496618 207.57476878 283.13235549 211.61379982 279 216 C278.52626953 216.50772949 278.05253906 217.01545898 277.56445312 217.53857422 C247.28620971 249.77634916 203.60913421 269.23649718 159.44238281 271.10839844 C113.27587903 272.16670612 68.67617759 257.99332838 34 227 C32.56293673 225.77032277 31.12549958 224.54108217 29.6875 223.3125 C-1.91649792 195.26395184 -23.2709382 152.19916087 -26 110 C-26.18653158 104.72853587 -26.24563023 99.46158736 -26.25 94.1875 C-26.25067474 93.45456726 -26.25134949 92.72163452 -26.25204468 91.9664917 C-26.23471447 80.08639344 -25.57116271 68.62590699 -23 57 C-22.83371094 56.22624023 -22.66742188 55.45248047 -22.49609375 54.65527344 C-18.25407266 35.49547817 -10.92332882 16.38499323 0 0 Z " fill="#FEB300" transform="translate(116,173)"/>
<path d="M0 0 C0.66 -0.7425 1.32 -1.485 2 -2.25 C7.48523202 -7.75085946 14.5543943 -10.10322293 22.1875 -10.3125 C30.75229601 -10.19860644 37.10146539 -6.79659262 43.26953125 -0.9609375 C48.91381969 5.43507333 49.63867379 12.13441085 49.39453125 20.48046875 C48.7421157 26.30053223 47.28174624 32.16473042 43.55078125 36.80078125 C42 38 42 38 39 38 C39.85271484 39.4540625 39.85271484 39.4540625 40.72265625 40.9375 C60.94237297 75.84686731 68.6412105 113.91937927 58.31640625 153.546875 C48.42454433 188.54041345 25.50457706 218.90099636 -6.04736328 237.18652344 C-37.28295869 254.48507567 -75.79847193 261.0042019 -110.625 251.68896484 C-135.25841997 244.5430447 -155.59152733 232.73466327 -174 215 C-174.70511719 214.35804688 -175.41023438 213.71609375 -176.13671875 213.0546875 C-202.00165185 188.81614978 -213.07818844 153.40321864 -215.18359375 119 C-215.87389629 92.36244323 -208.06778724 60.0231792 -191 39 C-191.39832031 38.52691406 -191.79664063 38.05382812 -192.20703125 37.56640625 C-199.56737157 28.37941213 -201.18295155 19.73433553 -200 8 C-198.30904291 0.77886877 -194.10125617 -3.9534624 -188 -8 C-180.40302064 -12.07583972 -173.97136074 -13.2258749 -165.5625 -11 C-160.01483345 -9.01869052 -156.11255196 -5.09310727 -152 -1 C-148.73604821 -2.27011393 -145.58141494 -3.64897823 -142.4453125 -5.20703125 C-95.72446483 -28.14456225 -44.64728672 -27.81999495 0 0 Z M-179.78515625 30.22265625 C-184.28716517 35.86803251 -188.22411208 41.85056341 -192 48 C-192.36512695 48.59409668 -192.73025391 49.18819336 -193.10644531 49.80029297 C-211.09791772 79.7113235 -214.95502928 116.50472377 -206.875 150.125 C-198.19563645 183.66715811 -176.90710128 212.5718499 -147.6796875 231.10546875 C-135.23512134 238.43330554 -122.03445146 244.45859636 -108 248 C-106.8346875 248.2990625 -105.669375 248.598125 -104.46875 248.90625 C-83.55888809 253.42278017 -60.60187418 252.65223024 -40 247 C-39.27635254 246.80164551 -38.55270508 246.60329102 -37.80712891 246.39892578 C-19.98984573 241.26803805 -3.01463264 232.09481995 11 220 C11.96164062 219.18789063 12.92328125 218.37578125 13.9140625 217.5390625 C40.04851304 194.71641561 55.50458094 161.71446017 58.75 127.4375 C58.85329673 125.62602809 58.93802795 123.81335605 59 122 C59.03996094 121.16339844 59.07992188 120.32679688 59.12109375 119.46484375 C60.02455026 84.23003977 46.04534321 49.97657707 22.21850586 24.36303711 C-3.20814195 -2.39838897 -36.92137514 -17.21431047 -73.8112793 -18.35351562 C-114.81025927 -18.7559596 -152.95752719 -0.48600414 -179.78515625 30.22265625 Z " fill="#FDCD25" transform="translate(345,156)"/>
<path d="M0 0 C1.09939911 -0.00101212 1.09939911 -0.00101212 2.2210083 -0.00204468 C14.10110656 0.01528553 25.56159301 0.67883729 37.1875 3.25 C37.96125977 3.41628906 38.73501953 3.58257812 39.53222656 3.75390625 C61.68398997 8.65835571 82.11807275 18.09056184 101.1875 30.25 C100.8575 30.91 100.5275 31.57 100.1875 32.25 C98.55903511 32.6944035 96.90687429 33.0522618 95.25 33.375 C87.85603148 35.09493992 81.24745771 38.14787138 74.38671875 41.3125 C73.67781494 41.63935791 72.96891113 41.96621582 72.23852539 42.30297852 C70.91546405 42.91387662 69.59418917 43.52866597 68.27514648 44.14819336 C57.44290178 49.06659414 47.99909982 45.46843681 37.4609375 41.71484375 C13.09662657 33.12164421 -20.72042097 34.01787925 -44.44140625 44.26171875 C-53.67176155 46.96772094 -60.33405793 44.69395446 -68.6875 40.5 C-70.6190384 39.57512234 -72.55262114 38.65450133 -74.48828125 37.73828125 C-75.40561035 37.30209473 -76.32293945 36.8659082 -77.26806641 36.41650391 C-83.54865247 33.53714868 -90.02304633 31.52075336 -96.8125 30.25 C-93.58425024 26.65766192 -89.93276511 24.32324486 -85.75 22 C-85.05318115 21.61231445 -84.3563623 21.22462891 -83.63842773 20.82519531 C-57.52666739 6.63646824 -29.62285019 0.02454358 0 0 Z " fill="#FEB300" transform="translate(265.8125,89.75)"/>
<path d="M0 0 C4.81545957 3.4145986 9.12265916 6.98502875 13.23046875 11.22265625 C15.65586638 13.65876204 18.24046573 15.88217047 20.84375 18.125 C23.19962958 20.17359094 25.5050746 22.27203002 27.8125 24.375 C31.18940982 27.42858867 34.63217132 30.34429205 38.1875 33.1875 C44.25320218 38.09003486 49.88164977 43.42258037 55.5546875 48.76953125 C58.66973884 51.70277351 61.84464803 54.55111512 65.08984375 57.33984375 C68.41216492 60.2273417 71.64837002 63.21135962 74.8984375 66.1796875 C76.86723421 68.03676667 76.86723421 68.03676667 79 69 C79 69.66 79 70.32 79 71 C65.60662993 73.76324594 52.21179735 76.51927459 38.81502724 79.26599216 C32.5950176 80.54150903 26.3755476 81.81954558 20.15722656 83.10327148 C14.16084853 84.34108356 8.16316438 85.57236698 2.16450119 86.7990551 C-0.12860909 87.26919188 -2.42123142 87.74171497 -4.71335983 88.21661568 C-7.91362067 88.87925333 -11.11548141 89.53353172 -14.31787109 90.18579102 C-15.75177437 90.48573219 -15.75177437 90.48573219 -17.21464539 90.79173279 C-18.08405258 90.96705536 -18.95345978 91.14237793 -19.84921265 91.32301331 C-20.9857834 91.55668783 -20.9857834 91.55668783 -22.14531517 91.79508305 C-24 92 -24 92 -26 91 C-25.52711548 90.27840698 -25.52711548 90.27840698 -25.04467773 89.54223633 C-8.46647408 63.71963484 -2.98102718 33.1996413 -1.23364258 3.09106445 C-1 1 -1 1 0 0 Z " fill="#FEBE0F" transform="translate(451,267)"/>
<path d="M0 0 C0.66 0 1.32 0 2 0 C6.17756307 12.46326954 10.35030414 24.92814185 14.5168457 37.39510059 C16.45155538 43.18355401 18.38794043 48.97143578 20.328125 54.75805664 C22.19940183 60.3393621 24.06631594 65.92210909 25.93017578 71.50589561 C26.64310551 73.63912902 27.35762286 75.77183251 28.07373047 77.90400124 C29.07415765 80.88360067 30.06899382 83.86501082 31.0625 86.84692383 C31.36172363 87.7338089 31.66094727 88.62069397 31.96923828 89.53445435 C32.37311768 90.75227852 32.37311768 90.75227852 32.78515625 91.9947052 C33.02113525 92.69987683 33.25711426 93.40504847 33.50024414 94.13158894 C34 96 34 96 34 99 C27.74835275 97.73358838 21.75677804 96.05928783 15.71655273 94.01904297 C14.83741714 93.7261438 13.95828156 93.43324463 13.05250549 93.13146973 C10.17808985 92.17264049 7.30584676 91.20747365 4.43359375 90.2421875 C2.42876632 89.57204451 0.4238051 88.90230162 -1.58128357 88.23294067 C-6.8350502 86.4778836 -12.0869916 84.71742656 -17.33856201 82.95581055 C-22.70703086 81.15605578 -28.07722113 79.36145297 -33.44726562 77.56640625 C-43.96652781 74.04928993 -54.48386756 70.52646224 -65 67 C-63.61260297 62.83780891 -60.67686505 61.60520077 -57.125 59.375 C-34.11044704 44.45982554 -15.55103923 24.69203057 -1.12109375 1.44140625 C-0.75113281 0.96574219 -0.38117188 0.49007813 0 0 Z " fill="#FFBB0B" transform="translate(425,360)"/>
<path d="M0 0 C3.93483997 3.04710168 6.06874335 5.65178374 6.921875 10.67578125 C7.86188392 20.12063276 5.8172536 27.07723877 0.796875 35.05078125 C-3.07070735 38.58205209 -7.15788648 40.04960072 -12.078125 41.67578125 C-13.068125 42.00578125 -14.058125 42.33578125 -15.078125 42.67578125 C-25.2260809 43.41588463 -34.46763815 43.01719209 -42.515625 36.30078125 C-45.27605203 33.66254616 -47.39434202 31.13689071 -49.078125 27.67578125 C-49.59632813 26.80759766 -49.59632813 26.80759766 -50.125 25.921875 C-52.37188431 20.62696321 -51.9386716 13.63885252 -50.35546875 8.1875 C-48.01395069 3.15371017 -45.16097681 0.00192421 -39.98046875 -2.2265625 C-28.18425904 -6.18294195 -10.7896901 -6.87538524 0 0 Z " fill="#5E4036" transform="translate(291.078125,289.32421875)"/>
<path d="M0 0 C7.89280476 1.5554891 15.39065878 4.00088834 23.00390625 6.5703125 C24.33612558 7.01625457 25.66847966 7.46179424 27.0009613 7.9069519 C30.47922498 9.07016067 33.95565099 10.23876674 37.43170166 11.40856934 C40.99046729 12.60512031 44.55097277 13.79647071 48.11132812 14.98828125 C55.07591601 17.32048136 62.03856763 19.6583955 69 22 C67.85714747 25.42855759 67.25155543 25.74997097 64.39453125 27.74609375 C57.5856802 32.87800742 51.72088182 38.98062395 45.72338867 45.01586914 C43.68174419 47.06828618 41.62955874 49.10972884 39.57617188 51.15039062 C38.26237867 52.46550463 36.94920558 53.78123848 35.63671875 55.09765625 C35.029384 55.70094254 34.42204926 56.30422882 33.79631042 56.92579651 C31.12565009 59.62592918 28.77590297 62.19544322 26.77270508 65.43139648 C26.1877124 66.27903564 25.60271973 67.1266748 25 68 C24.01 68 23.02 68 22 68 C19.12803578 59.43038532 16.25928579 50.85970351 13.39466858 42.28763008 C12.06450595 38.30759298 10.73322622 34.32793677 9.39941406 30.34912109 C8.11299347 26.51154128 6.82948054 22.67300047 5.54800415 18.83376694 C5.0578318 17.366954 4.56660097 15.90049436 4.0743103 14.43439102 C3.38660415 12.38572546 2.70262389 10.33585218 2.01953125 8.28564453 C1.62870361 7.11760284 1.23787598 5.94956116 0.83520508 4.74612427 C0 2 0 2 0 0 Z " fill="#FEC71D" transform="translate(74,74)"/>
<path d="M0 0 C-1.28320296 4.43383138 -2.58922134 8.84530261 -4.13671875 13.1953125 C-8.91803121 26.67951862 -12.18600899 40.80354865 -14 55 C-18.57154416 53.75321523 -20.95360127 51.23290061 -24.125 47.91796875 C-26.56882798 45.41813638 -29.18649168 43.16503813 -31.83203125 40.8828125 C-34.24842951 38.7842468 -36.62529024 36.645603 -39 34.5 C-41.98062721 31.81016569 -44.97245233 29.13689636 -48 26.5 C-48.6290625 25.94828125 -49.258125 25.3965625 -49.90625 24.828125 C-51.50289149 23.43404251 -53.10877212 22.05053422 -54.71875 20.671875 C-55.6365625 19.87265625 -56.554375 19.0734375 -57.5 18.25 C-58.78390625 17.14398438 -58.78390625 17.14398438 -60.09375 16.015625 C-62 14 -62 14 -62 11 C-54.45833949 9.42230657 -46.91417296 7.85705444 -39.36816406 6.30029297 C-36.80312145 5.76960566 -34.23865878 5.23610694 -31.67480469 4.69970703 C-27.982622 3.92775728 -24.28844963 3.16604963 -20.59375 2.40625 C-18.8839093 2.04533264 -18.8839093 2.04533264 -17.13952637 1.67712402 C-11.30262761 0.48746122 -5.95729701 -0.2788522 0 0 Z " fill="#FEC81E" transform="translate(67,184)"/>
<path d="M0 0 C1.5234375 1.73046875 1.5234375 1.73046875 3.375 4.1875 C12.96182271 16.4489073 23.77096981 27.90832095 36.6015625 36.80859375 C37.06304687 37.20175781 37.52453125 37.59492188 38 38 C38 38.66 38 39.32 38 40 C30.63957716 42.48437658 23.27700217 44.96225566 15.91161728 47.43187714 C12.49159093 48.57884213 9.07234423 49.72802631 5.65478516 50.88232422 C2.35623741 51.99633395 -0.94423361 53.10445872 -4.24611664 54.20854187 C-6.11753461 54.83600804 -7.98691456 55.46954199 -9.85626221 56.10314941 C-10.99714294 56.4835437 -12.13802368 56.86393799 -13.31347656 57.25585938 C-14.31719299 57.59339233 -15.32090942 57.93092529 -16.3550415 58.27868652 C-19 59 -19 59 -23 59 C-21.06187253 51.65043644 -18.91461477 44.40440579 -16.53125 37.1875 C-16.20966919 36.21135742 -15.88808838 35.23521484 -15.5567627 34.22949219 C-14.88275629 32.18874375 -14.20708031 30.14854602 -13.52978516 28.10888672 C-12.49433701 24.98290362 -11.47176201 21.85288075 -10.44921875 18.72265625 C-9.78985049 16.73150972 -9.12972157 14.74061488 -8.46875 12.75 C-8.0139325 11.34850708 -8.0139325 11.34850708 -7.54992676 9.91870117 C-7.25952515 9.05349854 -6.96912354 8.1882959 -6.66992188 7.296875 C-6.41915894 6.53729492 -6.168396 5.77771484 -5.91003418 4.99511719 C-4.59917148 2.12124194 -3.31793407 0 0 0 Z " fill="#FEC91F" transform="translate(97,400)"/>
<path d="M0 0 C-1.454693 7.21751529 -3.55697803 14.06485321 -5.9140625 21.03515625 C-6.28856537 22.15442001 -6.66306824 23.27368378 -7.04891968 24.42686462 C-8.23669924 27.97351744 -9.43074636 31.51802261 -10.625 35.0625 C-11.43531195 37.47837609 -12.24521208 39.89439036 -13.0546875 42.31054688 C-15.03169645 48.20863822 -17.01384455 54.10498282 -19 60 C-22.83937481 58.22969183 -24.99790272 56.05748952 -27.8125 52.875 C-28.25480957 52.38 -28.69711914 51.885 -29.15283203 51.375 C-31.05930698 49.23498014 -32.93766557 47.07392837 -34.78515625 44.8828125 C-41.78495618 36.59312315 -49.93034531 28.97772695 -59 23 C-58.01697108 20.44773302 -57.41105956 19.23302302 -54.99511719 17.86346436 C-53.7832373 17.42589813 -53.7832373 17.42589813 -52.546875 16.97949219 C-51.64775391 16.64896851 -50.74863281 16.31844482 -49.82226562 15.97790527 C-48.89091797 15.65519653 -47.95957031 15.33248779 -47 15 C-46.13568359 14.69501587 -45.27136719 14.39003174 -44.38085938 14.07580566 C-41.67737379 13.13834327 -38.96574813 12.22941849 -36.25 11.328125 C-35.2700708 11.00084412 -34.2901416 10.67356323 -33.28051758 10.33636475 C-31.23063405 9.65262016 -29.18025327 8.97036466 -27.12939453 8.28955078 C-23.97927253 7.24311456 -20.83136191 6.19021159 -17.68359375 5.13671875 C-15.68502415 4.47096885 -13.68633068 3.80559065 -11.6875 3.140625 C-10.74487305 2.82506653 -9.80224609 2.50950806 -8.83105469 2.18438721 C-7.96254883 1.89698669 -7.09404297 1.60958618 -6.19921875 1.31347656 C-5.05199341 0.93186371 -5.05199341 0.93186371 -3.8815918 0.5425415 C-2 0 -2 0 0 0 Z " fill="#FEC81E" transform="translate(459,74)"/>
<path d="M0 0 C0.91773193 0.3242395 0.91773193 0.3242395 1.85400391 0.6550293 C15.68524533 5.502788 29.4049089 9.48841592 43.74658203 12.49511719 C46.87652367 13.19638689 49.92932654 14.07504816 53 15 C52.47403544 19.16875613 50.19493533 21.26819527 47.375 24.25 C46.45643238 25.23251337 45.53846598 26.21558915 44.62109375 27.19921875 C43.75613281 28.12347656 42.89117187 29.04773438 42 30 C40.80479283 31.34736907 39.6162436 32.70070445 38.4375 34.0625 C35.82298058 37.07073528 33.17048344 40.04130249 30.5 43 C24.56469355 49.58022939 18.75527429 56.26211791 13 63 C10.58143043 60.58143043 10.44220527 59.24703947 9.76318359 55.92700195 C9.54310638 54.86862625 9.32302917 53.81025055 9.09628296 52.71980286 C8.86599396 51.57090073 8.63570496 50.4219986 8.3984375 49.23828125 C8.1571109 48.05912643 7.9157843 46.87997162 7.66714478 45.66508484 C7.15750055 43.16493265 6.65169882 40.66399462 6.14941406 38.16235352 C5.38125156 34.34357844 4.59780346 30.52817306 3.8125 26.71289062 C3.31938695 24.28404189 2.82717041 21.85501094 2.3359375 19.42578125 C2.10160004 18.28700027 1.86726257 17.1482193 1.62582397 15.97492981 C0.54676688 10.55303262 -0.29648329 5.53055363 0 0 Z " fill="#FEC91F" transform="translate(184,467)"/>
<path d="M0 0 C6.69110111 -0.3586982 12.89105635 0.99122689 19.42578125 2.3359375 C20.6097197 2.57535065 21.79365814 2.81476379 23.01347351 3.06143188 C25.50617448 3.56750843 27.99817393 4.07705117 30.48950195 4.58984375 C34.31445612 5.37540174 38.14232373 6.14539244 41.97070312 6.9140625 C44.39341942 7.40792178 46.81595226 7.90268206 49.23828125 8.3984375 C50.38718338 8.6287265 51.53608551 8.8590155 52.71980286 9.09628296 C54.30736641 9.42639877 54.30736641 9.42639877 55.92700195 9.76318359 C56.8607515 9.95415619 57.79450104 10.14512878 58.75654602 10.34188843 C61 11 61 11 63 13 C49.98706256 25.08060808 49.98706256 25.08060808 43.9453125 30.30078125 C41.6633471 32.29406428 39.42771426 34.33493027 37.1875 36.375 C32.70044557 40.43140834 28.06375169 44.26823965 23.34765625 48.0546875 C21.02325373 49.87020207 21.02325373 49.87020207 19.43359375 51.8203125 C18.96050781 52.20960938 18.48742187 52.59890625 18 53 C15.91040039 52.57373047 15.91040039 52.57373047 14 52 C13.87471924 51.36199463 13.74943848 50.72398926 13.62036133 50.06665039 C10.22617531 32.92331718 6.31393835 16.33158356 0 0 Z " fill="#FEC91F" transform="translate(467,184)"/>
<path d="M0 0 C0.33415187 7.13869902 -0.9351317 13.62434858 -2.40625 20.59375 C-2.77248474 22.37465027 -2.77248474 22.37465027 -3.14611816 24.19152832 C-3.92337812 27.96258648 -4.71152119 31.73127332 -5.5 35.5 C-6.03066919 38.06495505 -6.56062496 40.6300578 -7.08984375 43.1953125 C-8.38497262 49.46527574 -9.68903102 55.73333069 -11 62 C-13 62 -13 62 -14.41015625 60.6015625 C-14.95542969 59.94929687 -15.50070312 59.29703125 -16.0625 58.625 C-18.82817409 55.37058933 -21.63308192 52.16586167 -24.5 49 C-27.7658146 45.38112436 -30.99305031 41.73316615 -34.19140625 38.0546875 C-36.24664777 35.71979109 -38.34243033 33.42420466 -40.4375 31.125 C-53 17.1810567 -53 17.1810567 -53 14 C-48.72856228 12.90361471 -44.45935987 11.86842263 -40.14453125 10.95703125 C-27.70240257 8.30334757 -15.78133812 4.85632371 -3.80566406 0.56323242 C-2 0 -2 0 0 0 Z " fill="#FEC81E" transform="translate(349,468)"/>
<path d="M0 0 C5.07579029 1.50075155 8.1069568 4.59844542 11.8125 8.1875 C13.06303658 9.37450491 14.31433265 10.56071023 15.56640625 11.74609375 C16.16211426 12.31312012 16.75782227 12.88014648 17.37158203 13.46435547 C19.87703207 15.82706622 22.47186514 18.07827675 25.078125 20.328125 C27.41105074 22.35758073 29.70511245 24.427647 32 26.5 C35.13455536 29.32544666 38.27349064 32.14504403 41.4375 34.9375 C42.36369141 35.75541016 42.36369141 35.75541016 43.30859375 36.58984375 C45.15617506 38.18122039 45.15617506 38.18122039 48 40 C48 40.66 48 41.32 48 42 C40.45833949 43.57769343 32.91417296 45.14294556 25.36816406 46.69970703 C22.80312145 47.23039434 20.23865878 47.76389306 17.67480469 48.30029297 C13.982622 49.07224272 10.28844963 49.83395037 6.59375 50.59375 C5.4538562 50.83436157 4.3139624 51.07497314 3.13952637 51.32287598 C-2.69737239 52.51253878 -8.04270299 53.2788522 -14 53 C-12.54834488 48.11692698 -11.08539999 43.23951841 -9.53515625 38.38671875 C-5.9384784 26.9866097 -3.3579664 15.62613276 -1.38549805 3.83740234 C-1 2 -1 2 0 0 Z " fill="#FEC81E" transform="translate(482,296)"/>
<path d="M0 0 C3.48997826 2.32665218 3.71215634 3.2676133 4.99291992 7.13647461 C5.35306686 8.20776108 5.71321381 9.27904755 6.08427429 10.38279724 C6.46251846 11.54424759 6.84076263 12.70569794 7.23046875 13.90234375 C7.62575272 15.09098526 8.02103668 16.27962677 8.42829895 17.50428772 C9.262776 20.02049521 10.09317381 22.53761856 10.91674805 25.05737305 C11.97244765 28.28673341 13.04120183 31.51157476 14.11471081 34.73505306 C15.13772101 37.80991579 16.15280428 40.88738341 17.16796875 43.96484375 C17.55228561 45.12426987 17.93660248 46.28369598 18.33256531 47.47825623 C18.858601 49.08991417 18.858601 49.08991417 19.39526367 50.73413086 C19.70598312 51.68074081 20.01670258 52.62735077 20.33683777 53.60264587 C21 56 21 56 21 59 C14.05389437 57.5796629 7.41860191 55.63799355 0.69140625 53.41015625 C-0.35652603 53.06496445 -1.40445831 52.71977264 -2.48414612 52.36412048 C-4.6825287 51.63781298 -6.88010494 50.90906068 -9.0769043 50.17797852 C-12.44818113 49.05895463 -15.82447382 47.95605592 -19.20117188 46.85351562 C-21.34147134 46.14421062 -23.48145696 45.43395772 -25.62109375 44.72265625 C-26.6324791 44.39443375 -27.64386444 44.06621124 -28.68589783 43.7280426 C-30.08359154 43.25756752 -30.08359154 43.25756752 -31.50952148 42.77758789 C-32.33064926 42.50604385 -33.15177704 42.23449982 -33.99778748 41.95472717 C-36 41 -36 41 -38 38 C-28.54347826 29.45424982 -28.54347826 29.45424982 -24 25.5625 C-15.43847597 18.06901318 -8.07416709 9.87896598 -1 1 C-0.67 0.67 -0.34 0.34 0 0 Z " fill="#FEC81E" transform="translate(438,400)"/>
<path d="M0 0 C5.76349846 2.41779414 12.79383114 1.46598836 18.9375 1.25 C18.6075 2.24 18.2775 3.23 17.9375 4.25 C18.75476563 4.48460937 19.57203125 4.71921875 20.4140625 4.9609375 C24.66821995 6.51733657 28.40123396 8.61169958 32.3125 10.875 C33.04855469 11.29523438 33.78460938 11.71546875 34.54296875 12.1484375 C36.3438765 13.17752764 38.14107318 14.21310756 39.9375 15.25 C38.7928125 16.11625 38.7928125 16.11625 37.625 17 C35.27549083 18.96703093 33.64426495 20.73476744 31.9375 23.25 C30.99132812 22.68152344 30.04515625 22.11304688 29.0703125 21.52734375 C-4.01757996 2.04667755 -42.1704418 -4.00145402 -79.5625 5.4375 C-89.83132536 8.1851746 -99.53951006 12.10676875 -108.8046875 17.32421875 C-109.39717285 17.65695801 -109.9896582 17.98969727 -110.60009766 18.33251953 C-112.20945698 19.25353013 -113.8007841 20.2058482 -115.390625 21.16015625 C-118.0625 22.25 -118.0625 22.25 -120.28125 21.59765625 C-122.66283243 19.79580112 -124.29838699 17.64415337 -126.0625 15.25 C-120.65503646 11.28452674 -114.96803997 8.02847466 -109 5 C-108.34 4.65904297 -107.68 4.31808594 -107 3.96679688 C-102.41288659 1.68232356 -98.05314813 0.40364269 -93.0625 -0.75 C-91.28470416 -1.37641308 -89.51325769 -2.02126151 -87.75 -2.6875 C-61.50340181 -11.41457561 -25.47678204 -11.61036935 0 0 Z " fill="#FDD029" transform="translate(313.0625,133.75)"/>
<path d="M0 0 C-0.99 1.485 -0.99 1.485 -2 3 C-1.47921875 3.21398437 -0.9584375 3.42796875 -0.421875 3.6484375 C3.00284502 5.55965222 5.79891309 8.05724284 8.75 10.625 C9.37543701 11.16697021 10.00087402 11.70894043 10.64526367 12.26733398 C18.15478708 18.82221568 24.71376497 25.66840914 30.921875 33.484375 C32.92737944 36.03231471 32.92737944 36.03231471 35.29296875 38.08984375 C35.85628906 38.72019531 36.41960937 39.35054687 37 40 C36.62007318 43.31079082 36.00985032 45.85442368 35 49 C34.70150146 49.93102539 34.70150146 49.93102539 34.39697266 50.88085938 C32.98011978 55.27110773 31.50526104 59.63933921 30 64 C29.34 64 28.68 64 28 64 C26.40315893 61.90508941 24.91135475 59.80408181 23.4375 57.625 C19.63717821 52.14971389 15.63288525 47.11170657 11.078125 42.23046875 C9.16973109 40.18217378 7.36375274 38.07964403 5.5625 35.9375 C-2.89913083 26.30277944 -14.41287488 15.79356256 -26 10 C-26 9.01 -26 8.02 -26 7 C-22.04573359 5.63374627 -18.08601051 4.28406373 -14.125 2.9375 C-12.99707031 2.54755859 -11.86914062 2.15761719 -10.70703125 1.75585938 C-9.63066406 1.39169922 -8.55429687 1.02753906 -7.4453125 0.65234375 C-5.95281982 0.14175415 -5.95281982 0.14175415 -4.43017578 -0.37915039 C-2 -1 -2 -1 0 0 Z " fill="#FEC113" transform="translate(402,94)"/>
<path d="M0 0 C2.86576542 2.14574782 5.46306331 4.47688858 8 7 C7.68167925 10.00351026 7.41917342 11.58362107 5.2421875 13.74609375 C4.46101563 14.30425781 3.67984375 14.86242187 2.875 15.4375 C-8.89128274 24.37583496 -19.24960421 34.93198316 -29 46 C-33.37972202 44.13082993 -35.08097812 41.22507339 -37 37 C-40.03593937 29.20414139 -40.56741742 19.96177849 -37.5 12.0625 C-33.58774315 4.70307977 -27.16088634 0.39047806 -19.44140625 -2.34375 C-12.69417683 -4.15740527 -6.21121298 -3.12175349 0 0 Z " fill="#DE7420" transform="translate(184,147)"/>
<path d="M0 0 C6.9606264 4.3089592 12.20112644 9.14686586 14.1328125 17.3203125 C15.1403707 26.18892371 14.34873321 34.35377337 10.1328125 42.3203125 C8.49609375 44.12109375 8.49609375 44.12109375 7.1328125 45.3203125 C2.95732709 43.73106155 0.45560499 40.64088422 -2.4296875 37.3828125 C-3.50364965 36.19910479 -4.57920105 35.01683725 -5.65625 33.8359375 C-6.46497559 32.94745117 -6.46497559 32.94745117 -7.29003906 32.04101562 C-13.90157061 24.82769143 -20.77078149 18.29764603 -28.71655273 12.5793457 C-32.76654588 9.62223735 -32.76654588 9.62223735 -33.8671875 6.3203125 C-25.89079729 -3.58141327 -11.08948059 -5.68385564 0 0 Z " fill="#DE7420" transform="translate(379.8671875,148.6796875)"/>
<path d="M0 0 C5.80899687 3.27395519 8.32010123 7.5972579 10.2109375 13.8515625 C11.76708795 20.95572762 11.34725865 27.90309868 7.75 34.3125 C4.58872578 38.04118242 1.59654353 40.85234447 -3.328125 41.6484375 C-10.03079722 41.76898916 -15.04948984 40.30721239 -20.01171875 35.6640625 C-25.45535193 29.62729738 -26.72695661 24.38792003 -26.55859375 16.31640625 C-25.82236094 9.14978556 -22.38448525 4.896812 -16.93359375 0.44140625 C-11.71712046 -3.05641459 -5.45343219 -2.52794613 0 0 Z " fill="#604236" transform="translate(337.25,241.6875)"/>
<path d="M0 0 C5.1948607 3.54195048 8.44477594 7.70484991 9.75 13.875 C10.3844368 20.50259872 10.04439538 26.96478902 6.75 32.875 C2.92751335 37.29659603 -1.37034021 40.8950567 -7.25 41.875 C-12.943314 41.94387073 -16.81983158 40.6003689 -21.25 36.875 C-25.76681084 31.10351949 -27.77529545 25.53059947 -27.5546875 18.23828125 C-26.58044569 10.68166206 -22.89232792 5.94694945 -17.15234375 1.1875 C-12.0662575 -2.3215862 -5.62441674 -1.94691349 0 0 Z " fill="#5F4136" transform="translate(217.25,242.125)"/>
<path d="M0 0 C3.23923523 1.07974508 3.62925165 1.49327662 5.49609375 4.140625 C5.96587646 4.79256836 6.43565918 5.44451172 6.91967773 6.11621094 C7.42055908 6.82036133 7.92144043 7.52451172 8.4375 8.25 C21.12845692 25.58908517 36.22981127 39.95783312 54 52 C53.01 52.495 53.01 52.495 52 53 C52 53.66 52 54.32 52 55 C49.77585391 55.86979461 47.54727408 56.72083184 45.3125 57.5625 C44.37374023 57.9327832 44.37374023 57.9327832 43.41601562 58.31054688 C39.54042456 59.75121162 36.88945481 60.57219846 33 59 C30.92208987 57.34340406 29.07434638 55.72350079 27.1875 53.875 C26.11930204 52.85852052 25.05029218 51.84289357 23.98046875 50.828125 C23.46661621 50.33634766 22.95276367 49.84457031 22.42333984 49.33789062 C20.67408383 47.69364998 18.84682355 46.158212 17 44.625 C9.71089075 38.31593905 2.71868865 30.76107745 -3 23 C-3 22.34 -3 21.68 -3 21 C-4.98 21.99 -4.98 21.99 -7 23 C-4.97810834 15.21878058 -2.61369593 7.60227292 0 0 Z " fill="#FEC214" transform="translate(100,379)"/>
<path d="M0 0 C5.26104472 1.70943197 10.46147688 3.52542036 15.62915039 5.4987793 C34.17758305 12.53953285 52.34011209 16.30664561 72 19 C72 23.23197879 70.10860862 24.3929992 67.25 27.4375 C66.36828125 28.38496094 65.4865625 29.33242188 64.578125 30.30859375 C62.41277913 32.56908361 60.2262763 34.7997316 58 37 C57.67 36.34 57.34 35.68 57 35 C54.86338532 34.32859578 54.86338532 34.32859578 52.25 33.88671875 C51.25693848 33.69327881 50.26387695 33.49983887 49.24072266 33.30053711 C47.63656494 32.99708374 47.63656494 32.99708374 46 32.6875 C32.89491842 30.08339723 20.02329823 27.10137931 7.78515625 21.6015625 C7.19605469 21.40304687 6.60695312 21.20453125 6 21 C5.34 21.33 4.68 21.66 4 22 C3.32838005 18.89688362 2.66356325 15.79234832 2 12.6875 C1.80921875 11.80642578 1.6184375 10.92535156 1.421875 10.01757812 C1.24140625 9.17001953 1.0609375 8.32246094 0.875 7.44921875 C0.70742187 6.66893311 0.53984375 5.88864746 0.3671875 5.0847168 C0 3 0 3 0 0 Z " fill="#FEC214" transform="translate(179,447)"/>
<path d="M0 0 C3.07393213 3.07393213 3.84749009 6.92636988 5.1875 11 C5.47302734 11.83273437 5.75855469 12.66546875 6.05273438 13.5234375 C6.31763672 14.32007813 6.58253906 15.11671875 6.85546875 15.9375 C7.09934326 16.66839844 7.34321777 17.39929688 7.59448242 18.15234375 C8 20 8 20 7 22 C5.84199469 23.1749414 4.68072321 24.3468586 3.50244141 25.50146484 C0.6424781 28.35399243 -2.06825647 31.34926724 -4.8125 34.3125 C-12.46434825 42.523998 -20.00027786 50.19586887 -28.875 57.1171875 C-29.57625 57.73851562 -30.2775 58.35984375 -31 59 C-31 59.66 -31 60.32 -31 61 C-38.50931455 59.0827282 -45.75803759 56.75950985 -53 54 C-48.18697302 50.1477129 -48.18697302 50.1477129 -46.26757812 48.63134766 C-29.49876737 35.34804153 -9.7710265 19.54205299 0 0 Z " fill="#FEC214" transform="translate(432,379)"/>
<path d="M0 0 C2.5625 1.9609375 2.5625 1.9609375 5 4.375 C11.85865011 11.12373585 18.11618027 13.09558667 27.5625 13.375 C39.35560515 13.23958856 47.07127106 8.62846064 55.52734375 0.6953125 C58 -1 58 -1 60.69140625 -0.8828125 C63 0 63 0 65 2 C65.5625 4.625 65.5625 4.625 65 8 C58.98691914 16.78315182 50.47400177 22.86766683 40 25 C25.12609957 26.65900099 10.27517107 25.67526383 -2.12109375 16.56640625 C-6.16553747 13.19463508 -8.7570215 10.79196642 -9.5 5.3125 C-9 2 -9 2 -7.875 0 C-4.98095948 -1.54348828 -3.11890619 -0.81594856 0 0 Z " fill="#604136" transform="translate(241,344)"/>
<path d="M0 0 C6.33478755 5.09537259 11.62456662 10.9159082 17 17 C17.67804688 17.763125 18.35609375 18.52625 19.0546875 19.3125 C20.71747243 21.19651383 22.36325386 23.09336487 24 25 C24.78375 25.9075 25.5675 26.815 26.375 27.75 C27.9756159 29.9662374 28.43914016 31.38265409 29 34 C28.06542969 34.21914063 27.13085938 34.43828125 26.16796875 34.6640625 C17.35902839 36.77602809 8.73237284 39.25213318 0.12182617 42.06884766 C-5.81134445 44 -5.81134445 44 -8 44 C-8.52378621 35.69560777 -6.78890638 27.9191232 -5.06420898 19.84960938 C-4.55819711 17.47984867 -4.06617661 15.10749211 -3.57617188 12.734375 C-3.26121887 11.22899861 -2.94549225 9.72378381 -2.62890625 8.21875 C-2.48095108 7.50843628 -2.33299591 6.79812256 -2.18055725 6.06628418 C-1.11650848 1.11650848 -1.11650848 1.11650848 0 0 Z " fill="#FDD12A" transform="translate(196,4)"/>
<path d="M0 0 C5.90822245 4.29688906 10.86626393 9.98729299 15 16 C15 16.66 15 17.32 15 18 C14.44352783 18.08975098 13.88705566 18.17950195 13.3137207 18.27197266 C2.65134462 20.02269099 -7.85545759 22.0214746 -18.25 25 C-19.08104248 25.2367041 -19.91208496 25.4734082 -20.76831055 25.71728516 C-25.97087388 27.2561964 -30.96027335 29.12409149 -35.95996094 31.23046875 C-38 32 -38 32 -40 32 C-40.48350422 24.10276444 -38.67664721 16.66467297 -37 9 C-36.67 10.32 -36.34 11.64 -36 13 C-35.15574463 12.7054895 -35.15574463 12.7054895 -34.29443359 12.4050293 C-24.07854139 8.86267336 -14.1173213 5.4605927 -3.421875 3.703125 C-2.22304687 3.35507812 -2.22304687 3.35507812 -1 3 C-0.67 2.01 -0.34 1.02 0 0 Z " fill="#FEC81E" transform="translate(224,35)"/>
<path d="M0 0 C1.00863495 4.67490036 2.00504881 9.35218692 2.99072266 14.03198242 C3.32697656 15.62024213 3.66643228 17.20782776 4.00927734 18.79467773 C7.51248985 35.02895258 7.51248985 35.02895258 7 43 C-0.89865172 41.29822302 -8.72740454 39.34679896 -16.5625 37.375 C-17.87041496 37.04676443 -19.17835748 36.71863862 -20.48632812 36.390625 C-23.6578238 35.59482535 -26.82903797 34.79792286 -30 34 C-28.37883666 29.59409268 -26.17392708 26.71237581 -22.9375 23.375 C-19.18769627 19.40825526 -15.60922312 15.38469613 -12.1875 11.125 C-3.20378075 0 -3.20378075 0 0 0 Z " fill="#FDD12A" transform="translate(338,4)"/>
<path d="M0 0 C-0.23783203 0.86044922 -0.23783203 0.86044922 -0.48046875 1.73828125 C-2.44013803 8.87320973 -4.3294081 16.02559528 -6.19799805 23.18481445 C-7.40833136 27.80778122 -8.66852755 32.41040832 -10 37 C-14.10284014 35.62267001 -16.66842384 33.76356341 -19.8125 30.8125 C-20.68519531 30.00425781 -21.55789062 29.19601563 -22.45703125 28.36328125 C-23.29621094 27.58339844 -24.13539062 26.80351562 -25 26 C-26.32789696 24.82714939 -27.66079403 23.65992079 -29 22.5 C-29.6290625 21.94828125 -30.258125 21.3965625 -30.90625 20.828125 C-32.50289149 19.43404251 -34.10877212 18.05053422 -35.71875 16.671875 C-36.6365625 15.87265625 -37.554375 15.0734375 -38.5 14.25 C-39.3559375 13.51265625 -40.211875 12.7753125 -41.09375 12.015625 C-43 10 -43 10 -43 7 C-39.02381805 6.15198842 -35.04365881 5.32430261 -31.0625 4.5 C-29.94552734 4.26152344 -28.82855469 4.02304688 -27.67773438 3.77734375 C-21.28839437 2.46574903 -15.51178203 1.84324697 -9 2 C-2.25 0 -2.25 0 0 0 Z " fill="#FDD12B" transform="translate(48,188)"/>
<path d="M0 0 C1.66300126 3.04630783 2.60926983 5.95836385 3.4375 9.32421875 C3.69273438 10.35353516 3.94796875 11.38285156 4.2109375 12.44335938 C4.60152344 14.04920898 4.60152344 14.04920898 5 15.6875 C5.39058594 17.2643457 5.39058594 17.2643457 5.7890625 18.87304688 C7.27395883 24.89887618 8.67928283 30.93613031 10 37 C0.88785129 37.58585572 -7.71811483 35.41086354 -16.5625 33.5 C-18.15932998 33.16193166 -19.75633411 32.82468485 -21.35351562 32.48828125 C-25.23775161 31.66832076 -29.11945536 30.83724842 -33 30 C-31.10697567 25.82138612 -28.24907885 23.20401018 -24.875 20.1875 C-24.29041016 19.65705078 -23.70582031 19.12660156 -23.10351562 18.58007812 C-21.40860464 17.0462305 -19.70612445 15.52135503 -18 14 C-16.78183594 12.91138672 -16.78183594 12.91138672 -15.5390625 11.80078125 C-10.59966876 7.43859636 -5.74365322 3.28208756 0 0 Z " fill="#FDD12A" transform="translate(37,308)"/>
<path d="M0 0 C0.33 0.66 0.66 1.32 1 2 C3.12257219 2.71182342 5.28097563 3.31757105 7.44921875 3.875 C8.42457329 4.12999268 8.42457329 4.12999268 9.41963196 4.39013672 C11.50702551 4.93440119 13.59705254 5.4675978 15.6875 6 C17.75950438 6.53446185 19.83088759 7.07122352 21.90180969 7.60986328 C23.79372833 8.10086651 25.68723239 8.58574872 27.58081055 9.0703125 C30.76743303 9.93676437 33.87942384 10.92194484 37 12 C37.33 10.68 37.66 9.36 38 8 C41.44419134 23.74487472 41.44419134 23.74487472 41 31 C36.10195782 30.35813488 31.68672117 28.9112136 27.0625 27.25 C14.42099751 22.85962593 1.21417033 20.06194269 -12 18 C-11.71125 17.443125 -11.4225 16.88625 -11.125 16.3125 C-9.95952458 14.03318946 -9.95952458 14.03318946 -9.1875 11.65625 C-7.82563881 8.60998155 -6.13619763 6.63105228 -3.875 4.1875 C-3.15054687 3.39730469 -2.42609375 2.60710938 -1.6796875 1.79296875 C-1.12539063 1.20128906 -0.57109375 0.60960937 0 0 Z " fill="#FEC81E" transform="translate(308,35)"/>
<path d="M0 0 C0.18006592 0.97888184 0.18006592 0.97888184 0.36376953 1.97753906 C4.70103964 25.34244146 4.70103964 25.34244146 12.17578125 47.859375 C13 50 13 50 13 53 C5.10276444 53.48350422 -2.33532703 51.67664721 -10 50 C-8.02 49.505 -8.02 49.505 -6 49 C-6.19634033 48.33581055 -6.39268066 47.67162109 -6.5949707 46.98730469 C-7.50336816 43.90895046 -8.40794653 40.82948585 -9.3125 37.75 C-9.62123047 36.70585937 -9.92996094 35.66171875 -10.24804688 34.5859375 C-12.34589177 27.43118228 -14.24681347 20.24682946 -16 13 C-17.98 13.99 -17.98 13.99 -20 15 C-17.0579531 10.81324095 -14.51244978 9.25622489 -10 7 C-7.8417389 5.2081601 -5.78211811 3.34256404 -3.734375 1.42578125 C-2 0 -2 0 0 0 Z " fill="#FEC81E" transform="translate(53,296)"/>
<path d="M0 0 C-1.69191434 8.9589922 -4.70442689 17.44717762 -7.625 26.0625 C-8.14625345 27.61118679 -8.66709036 29.16001384 -9.1875 30.70898438 C-10.45353377 34.47429156 -11.72519962 38.2376523 -13 42 C-16.99371421 40.17928164 -19.4534814 37.56795593 -22.3125 34.3125 C-23.29056211 33.22296578 -24.26972619 32.13441975 -25.25 31.046875 C-25.72179687 30.52158203 -26.19359375 29.99628906 -26.6796875 29.45507812 C-30.3510868 25.4089354 -34.14710201 21.63243005 -38.4375 18.25 C-39.283125 17.5075 -40.12875 16.765 -41 16 C-41 15.01 -41 14.02 -41 13 C-35.48369505 11.14478474 -29.9661026 9.29347027 -24.44726562 7.44580078 C-22.56897409 6.81634564 -20.69104254 6.18581528 -18.81347656 5.55419922 C-16.11877256 4.64790226 -13.42280883 3.74544652 -10.7265625 2.84375 C-9.88380768 2.55939087 -9.04105286 2.27503174 -8.17276001 1.98205566 C-2.22774341 0 -2.22774341 0 0 0 Z " fill="#FDD12A" transform="translate(459,74)"/>
<path d="M0 0 C0.58585572 9.11214871 -1.58913646 17.71811483 -3.5 26.5625 C-3.83806834 28.15932998 -4.17531515 29.75633411 -4.51171875 31.35351562 C-5.33167924 35.23775161 -6.16275158 39.11945536 -7 43 C-9 43 -9 43 -10.41015625 41.6015625 C-10.95542969 40.94929687 -11.50070312 40.29703125 -12.0625 39.625 C-14.82817409 36.37058933 -17.63308192 33.16586167 -20.5 30 C-24.37528731 25.70219414 -28.2225757 21.38416085 -32 17 C-32.804375 16.071875 -33.60875 15.14375 -34.4375 14.1875 C-36 12 -36 12 -36 9 C-35.18321777 8.79842285 -34.36643555 8.5968457 -33.52490234 8.38916016 C-30.47168588 7.63441788 -27.41901917 6.87749975 -24.36669922 6.11914062 C-23.04985563 5.7924317 -21.73280135 5.46657073 -20.41552734 5.14160156 C-18.51343429 4.67219783 -16.61217745 4.19940974 -14.7109375 3.7265625 C-13.56931152 3.44377441 -12.42768555 3.16098633 -11.25146484 2.86962891 C-9.04949919 2.28069651 -6.86603074 1.61864884 -4.70556641 0.89208984 C-2 0 -2 0 0 0 Z " fill="#FDD02A" transform="translate(345,487)"/>
<path d="M0 0 C3.94611638 0.82098318 5.79509038 2.34889064 8.75 5.125 C9.63171875 5.94226563 10.5134375 6.75953125 11.421875 7.6015625 C12.27265625 8.39304687 13.1234375 9.18453125 14 10 C15.32775236 11.1730143 16.66061368 12.34028746 18 13.5 C22.02305518 16.99759492 25.96230956 20.58477189 29.8984375 24.1796875 C31.86723421 26.03676667 31.86723421 26.03676667 34 27 C34 27.66 34 28.32 34 29 C29.32509964 30.00863495 24.64781308 31.00504881 19.96801758 31.99072266 C18.37975787 32.32697656 16.79217224 32.66643228 15.20532227 33.00927734 C-1.02895258 36.51248985 -1.02895258 36.51248985 -9 36 C-6 24 -3 12 0 0 Z " fill="#FDD02A" transform="translate(496,309)"/>
<path d="M0 0 C3.93724198 2.62482799 4.53139477 5.65513788 5.91796875 9.96484375 C6.18007645 10.75395645 6.44218414 11.54306915 6.7122345 12.35609436 C7.26419846 14.02474758 7.81108688 15.69508701 8.35327148 17.36694336 C9.18428954 19.92760743 10.03115804 22.4825917 10.88085938 25.03710938 C11.41500334 26.65854453 11.94823726 28.28027982 12.48046875 29.90234375 C12.73354294 30.66804184 12.98661713 31.43373993 13.24736023 32.22264099 C14.22756373 35.25834122 15 37.78876752 15 41 C7.34122053 39.50209507 0.00626265 37.19917774 -7.38647461 34.74145508 C-9.454126 34.05699626 -11.52660879 33.38875948 -13.59960938 32.72070312 C-14.91959481 32.28483407 -16.2392685 31.84801955 -17.55859375 31.41015625 C-18.74767334 31.01965088 -19.93675293 30.62914551 -21.16186523 30.22680664 C-24 29 -24 29 -26 26 C-25.16082031 25.26910156 -25.16082031 25.26910156 -24.3046875 24.5234375 C-18.86834653 19.71638359 -13.63862588 14.74767154 -8.5 9.625 C-7.88882324 9.01833496 -7.27764648 8.41166992 -6.64794922 7.78662109 C-5.78580811 6.92157959 -5.78580811 6.92157959 -4.90625 6.0390625 C-4.39384766 5.52553223 -3.88144531 5.01200195 -3.35351562 4.48291016 C-1.78050311 2.8345827 -1.78050311 2.8345827 0 0 Z " fill="#FDD12A" transform="translate(444,418)"/>
<path d="M0 0 C7.9235496 1.55564836 15.42504245 4.02639669 23.0625 6.625 C24.93325195 7.25535156 24.93325195 7.25535156 26.84179688 7.8984375 C29.89594465 8.92818847 32.94860185 9.96213551 36 11 C36 11.66 36 12.32 36 13 C36.66 13.33 37.32 13.66 38 14 C37.23816406 14.68964844 36.47632813 15.37929687 35.69140625 16.08984375 C24.45899198 25.76150197 24.45899198 25.76150197 15 37 C14.01 37 13.02 37 12 37 C10.28711039 32.05342384 8.57821574 27.10549296 6.87304688 22.15625 C6.29211922 20.47194969 5.71009192 18.78802824 5.12695312 17.10449219 C4.29008842 14.68783188 3.45715747 12.2698471 2.625 9.8515625 C2.36251465 9.0963028 2.1000293 8.34104309 1.82958984 7.56289673 C0 2.22774341 0 2.22774341 0 0 Z " fill="#FDD22C" transform="translate(74,74)"/>
<path d="M0 0 C3.63879675 1.53652003 5.98214646 3.72420759 8.765625 6.5 C10.09980469 7.8303125 10.09980469 7.8303125 11.4609375 9.1875 C12.84152344 10.5796875 12.84152344 10.5796875 14.25 12 C15.18585938 12.928125 16.12171875 13.85625 17.0859375 14.8125 C17.97023438 15.699375 18.85453125 16.58625 19.765625 17.5 C20.57805664 18.3146875 21.39048828 19.129375 22.22753906 19.96875 C24 22 24 22 24 24 C19.37611299 25.57428356 14.74964053 27.14062565 10.12060547 28.69970703 C8.54662911 29.23106589 6.97337788 29.76457777 5.40087891 30.30029297 C3.13892347 31.07047236 0.8744632 31.83284106 -1.390625 32.59375 C-2.09181458 32.83436157 -2.79300415 33.07497314 -3.51544189 33.32287598 C-6.89995358 34.45156267 -9.38533252 35 -13 35 C-11.1713573 27.56351968 -8.86976192 20.27815534 -6.5 13 C-6.20343506 12.06776611 -5.90687012 11.13553223 -5.60131836 10.17504883 C-5.16444702 8.85089966 -5.16444702 8.85089966 -4.71875 7.5 C-4.46029297 6.7059375 -4.20183594 5.911875 -3.93554688 5.09375 C-2.93672249 2.8583852 -1.82971504 1.60132144 0 0 Z " fill="#FDD12B" transform="translate(87,424)"/>
<path d="M0 0 C7.07470713 1.51969726 14.06619387 3.27991737 21.0625 5.125 C22.11888672 5.40214844 23.17527344 5.67929687 24.26367188 5.96484375 C26.84284566 6.64173099 29.42160698 7.32014591 32 8 C31.15432663 12.18292436 29.31766678 14.13841881 26.375 17.25 C25.46035594 18.22862345 24.54629633 19.20779346 23.6328125 20.1875 C22.76398438 21.115625 21.89515625 22.04375 21 23 C16.59451321 27.93688792 12.29732283 32.9689879 8 38 C5.31322245 35.31322245 5.23337442 33.17046249 4.4921875 29.453125 C4.36184113 28.80430359 4.23149475 28.15548218 4.09719849 27.48699951 C3.82296503 26.1125118 3.55254423 24.73725873 3.28564453 23.36132812 C2.87888889 21.2699947 2.45801249 19.18188024 2.03515625 17.09375 C0.89611827 11.34492693 -0.17886384 5.89238238 0 0 Z " fill="#FDD22B" transform="translate(189,492)"/>
<path d="M0 0 C8.16040221 0.55767012 16.0505451 1.81428646 24.0625 3.4375 C25.18849609 3.65470703 26.31449219 3.87191406 27.47460938 4.09570312 C28.54646484 4.31033203 29.61832031 4.52496094 30.72265625 4.74609375 C31.68953369 4.93872803 32.65641113 5.1313623 33.65258789 5.32983398 C36 6 36 6 38 8 C24.08702579 20.91616051 24.08702579 20.91616051 17 27 C16.43539063 27.5053125 15.87078125 28.010625 15.2890625 28.53125 C11.33854167 32 11.33854167 32 8 32 C6.84940471 27.7929539 5.70536736 23.58415141 4.5625 19.375 C4.23701172 18.18519531 3.91152344 16.99539062 3.57617188 15.76953125 C3.26357422 14.61582031 2.95097656 13.46210938 2.62890625 12.2734375 C2.34088135 11.21560059 2.05285645 10.15776367 1.75610352 9.06787109 C1.01404232 6.05697634 0.46788726 3.06436034 0 0 Z " fill="#FDD22B" transform="translate(492,189)"/>
</svg>
